<svg width="32" height="32" viewBox="0 0 32 32" fill="none" xmlns="http://www.w3.org/2000/svg">
<path d="M32 16C32 24.8366 24.8366 32 16 32C7.16344 32 0 24.8366 0 16C0 7.16344 7.16344 0 16 0C24.8366 0 32 7.16344 32 16Z" fill="#3F064F"/>
<path fill-rule="evenodd" clip-rule="evenodd" d="M16 30C23.732 30 30 23.732 30 16C30 8.26801 23.732 2 16 2C8.26801 2 2 8.26801 2 16C2 23.732 8.26801 30 16 30ZM16 32C24.8366 32 32 24.8366 32 16C32 7.16344 24.8366 0 16 0C7.16344 0 0 7.16344 0 16C0 24.8366 7.16344 32 16 32Z" fill="#19CA8A"/>
<path d="M25.161 11.1265C26.6834 15.3337 25.936 20.3437 18.3242 23.1117C10.7123 25.8796 6.92019 22.5304 5.37014 18.3231C4.56743 16.1365 8.35953 12.7595 13.8401 10.7666C19.2929 8.7737 24.3583 8.93977 25.161 11.1265Z" fill="#C7676A"/>
<path d="M13.2034 24.385C11.8195 24.385 10.5462 24.1082 9.43902 23.5546C7.50146 22.6135 6.00676 20.8143 5.12102 18.3785C4.26295 16.0258 8.05505 12.5658 13.7293 10.4899C16.4143 9.52107 19.0715 9.02284 21.2582 9.0782C23.5279 9.13356 24.9949 9.82555 25.4101 10.9881C26.2959 13.4239 26.2959 15.749 25.4101 17.7142C24.3306 20.1223 21.9778 22.0045 18.4072 23.3055C16.4973 24.0528 14.7812 24.385 13.2034 24.385ZM20.843 9.65947C18.7947 9.65947 16.3589 10.1577 13.8954 11.0434C8.664 12.9533 4.8719 16.2472 5.59157 18.2401C6.42196 20.5375 7.83361 22.226 9.63278 23.1117C11.8748 24.1912 14.7535 24.1359 18.1858 22.8626C26.5727 19.8179 25.9637 14.2543 24.8565 11.2095C24.5244 10.2684 23.1957 9.71483 21.2028 9.65947C21.0921 9.65947 20.9814 9.65947 20.843 9.65947Z" fill="#3E064F"/>
<path d="M22.1716 18.7106C22.8636 20.6482 23.2511 22.6688 18.767 24.3019C14.2829 25.935 13.2588 24.1358 12.5668 22.2259C12.207 21.2294 13.5079 19.8455 16.7187 18.6829C19.9296 17.5204 21.7841 17.7141 22.1716 18.7106Z" fill="#AAAAAA"/>
<path d="M15.7776 25.2153C15.141 25.2153 14.5597 25.0769 14.0892 24.8278C13.065 24.2742 12.6222 23.2501 12.29 22.309C12.1239 21.8661 12.1516 21.1741 13.0927 20.316C13.8401 19.6517 15.058 18.9874 16.608 18.4062C18.1581 17.8526 19.5144 17.5758 20.5108 17.6035C21.8118 17.6588 22.2547 18.1847 22.4207 18.6276C22.7529 19.5687 23.085 20.6482 22.6698 21.7277C22.227 22.8626 20.9537 23.8037 18.8501 24.5787C17.6322 24.9939 16.608 25.2153 15.7776 25.2153ZM20.3171 18.157C19.459 18.157 18.2965 18.3785 16.7741 18.9321C13.6186 20.0669 12.5115 21.3679 12.7883 22.1429C13.5079 24.1081 14.4213 25.6028 18.6563 24.0805C20.6216 23.3608 21.7564 22.5304 22.1439 21.5616C22.5038 20.6759 22.1993 19.6794 21.8948 18.849C21.7564 18.4062 21.2305 18.157 20.3171 18.157Z" fill="#3E064F"/>
<path d="M21.5903 18.7937C22.227 20.5098 22.5591 22.309 18.5456 23.776C14.5321 25.243 13.6186 23.6376 13.0097 21.9215C12.6775 21.0357 13.8401 19.7901 16.7187 18.7383C19.5974 17.6865 21.2859 17.9079 21.5903 18.7937Z" fill="#8C8C8C"/>
<path d="M6.64339 19.541C6.67107 18.6553 7.25234 17.6035 8.30416 16.5516C9.79886 15.057 12.0132 13.7283 14.5597 12.8149C16.6911 12.0399 18.8501 11.6247 20.7323 11.6247C21.0921 11.6247 21.4243 11.6524 21.7564 11.6801C23.2511 11.8185 24.3583 12.2613 24.9672 12.898C25.161 12.4828 25.2717 12.0952 25.2717 11.7077C23.1681 10.1577 18.8224 10.1023 14.1999 11.7908C9.57742 13.4792 6.25588 16.3025 5.67461 18.8214C5.86836 19.0982 6.20052 19.3473 6.64339 19.541Z" fill="#3E064F"/>
<path d="M16.6911 18.6553C21.2305 16.9945 24.6351 14.3926 25.1887 12.289C23.4172 10.6559 18.9885 10.5729 14.366 12.2613C9.7435 13.9498 6.42195 16.8561 6.11748 19.2366C7.86129 20.4821 12.1516 20.3161 16.6911 18.6553Z" fill="white"/>
<path d="M16.6911 18.6553C21.0091 17.0775 24.2752 14.6417 25.078 12.5934C23.4725 10.9327 19.0715 10.822 14.4767 12.5104C9.85422 14.1989 6.56035 17.1052 6.39427 19.4026C8.27648 20.4544 12.3731 20.233 16.6911 18.6553Z" fill="white"/>
<path d="M9.7435 18.9321C7.7229 18.9321 6.47732 18.3785 6.08981 17.3543C5.25942 15.0846 9.43903 12.1783 13.757 10.6005C16.0821 9.77016 18.3795 9.2996 20.234 9.27192C22.31 9.24425 23.6109 9.79784 23.9708 10.8497C24.8012 13.1194 20.6216 16.0257 16.3036 17.6035C13.9785 18.4339 11.6811 18.9044 9.82654 18.9321C9.79886 18.9321 9.77118 18.9321 9.7435 18.9321ZM20.3171 10.3514C20.2894 10.3514 20.2617 10.3514 20.234 10.3514C18.4902 10.3791 16.3036 10.822 14.1169 11.6247C9.18991 13.4239 6.67108 15.9704 7.05859 17.0222C7.25235 17.5758 8.30417 17.9079 9.79886 17.9079C11.5427 17.8803 13.7294 17.4374 15.916 16.6347C20.843 14.8355 23.3618 12.289 22.9743 11.2372C22.8082 10.6836 21.7841 10.3514 20.3171 10.3514Z" fill="#3E064F"/>
<path d="M15.4613 15.2827C18.7796 14.075 21.1264 12.1527 20.7029 10.9891C20.2794 9.82553 17.2461 9.8613 13.9277 11.069C10.6094 12.2767 8.2626 14.199 8.68608 15.3626C9.10956 16.5262 12.1429 16.4904 15.4613 15.2827Z" fill="white"/>
<path d="M16.8018 14.7525C16.9125 14.6971 17.0232 14.6418 17.1339 14.6141L16.8018 14.7525Z" fill="white"/>
<path d="M16.8018 15.0293C16.6911 15.0293 16.608 14.9739 16.5527 14.8632C16.4973 14.7248 16.5527 14.5587 16.6911 14.5034C16.8018 14.448 16.9125 14.3926 16.9955 14.365C17.1339 14.3096 17.3 14.365 17.3554 14.5034C17.4107 14.6418 17.3554 14.8078 17.217 14.8632C17.1063 14.9186 16.9955 14.9739 16.8848 15.0293C16.8848 15.0293 16.8295 15.0293 16.8018 15.0293Z" fill="#3E064F"/>
<path d="M9.74349 18.683C7.86129 18.683 6.64339 18.1847 6.31123 17.2713C5.97908 16.3579 6.61571 15.1677 8.08272 13.9498C9.49438 12.7872 11.5427 11.68 13.8124 10.8496C16.1375 9.99158 18.4349 9.54871 20.2894 9.54871C22.1439 9.54871 23.3895 10.0469 23.7217 10.9604C24.0538 11.8738 23.4172 13.064 21.9502 14.2819C20.5385 15.4444 18.4902 16.5516 16.2205 17.382C13.8954 18.2124 11.598 18.683 9.74349 18.683Z" fill="white"/>
<path d="M20.3171 9.79782C22.0055 9.79782 23.1958 10.213 23.5002 11.0157C24.1092 12.6765 20.8153 15.3891 16.1375 17.1052C13.757 17.9633 11.4873 18.4062 9.77118 18.4062C8.05505 18.4062 6.89251 17.991 6.58804 17.1883C5.97909 15.5275 9.27295 12.8149 13.9508 11.0988C16.3035 10.2407 18.5733 9.79782 20.3171 9.79782ZM20.3171 9.27191C18.4349 9.27191 16.1098 9.74246 13.757 10.6005C11.432 11.4309 9.38367 12.5658 7.94433 13.756C7.22467 14.3649 6.69876 14.9462 6.3666 15.5275C5.89605 16.3579 5.95141 16.9945 6.08981 17.382C6.2282 17.7695 6.58804 18.2954 7.47378 18.6276C8.08273 18.849 8.85776 18.9597 9.77118 18.9597C11.6534 18.9597 13.9785 18.4892 16.3312 17.6311C18.6563 16.8007 20.7046 15.6659 22.1439 14.4757C22.8636 13.8667 23.3895 13.2854 23.7217 12.7042C24.1922 11.8738 24.1369 11.2372 23.9985 10.8496C23.8601 10.4621 23.5002 9.93622 22.6145 9.60407C22.0055 9.38263 21.2305 9.27191 20.3171 9.27191Z" fill="#3E064F"/>
<path d="M16.0259 16.8491C20.5222 15.2127 23.7221 12.6634 23.1731 11.155C22.6242 9.6467 18.5342 9.75052 14.0379 11.3869C9.54161 13.0233 6.34165 15.5727 6.89061 17.081C7.43956 18.5894 11.5296 18.4855 16.0259 16.8491Z" fill="white"/>
<path d="M7.22466 14.4757C6.92018 14.4757 6.67107 14.3096 6.50499 14.0605C6.33892 13.8114 6.33892 13.5069 6.47731 13.2301L8.8024 8.93982C8.94079 8.66302 9.21759 8.49695 9.54974 8.49695C9.85422 8.49695 10.1033 8.63535 10.2694 8.88446L12.8159 13.0641C12.982 13.3132 12.982 13.6453 12.8436 13.8945C12.7052 14.1713 12.4284 14.3373 12.1239 14.3373L7.22466 14.4757Z" fill="#C38D44"/>
<path d="M9.57742 8.77371C9.77117 8.77371 9.93725 8.85675 10.048 9.05051L12.5945 13.2301C12.8159 13.59 12.5668 14.0882 12.1239 14.0882L7.25234 14.1989C7.25234 14.1989 7.25234 14.1989 7.22466 14.1989C6.80946 14.1989 6.53267 13.7283 6.72643 13.3685L9.05151 9.07819C9.16223 8.88443 9.35598 8.77371 9.57742 8.77371ZM9.57742 8.2478C9.16222 8.2478 8.80239 8.46924 8.60863 8.82907L6.28356 13.1194C6.0898 13.4792 6.0898 13.8667 6.31124 14.2266C6.50499 14.5587 6.86483 14.7802 7.25234 14.7802H7.28002L12.1516 14.6418C12.5391 14.6418 12.899 14.4203 13.0927 14.0605C13.2865 13.7007 13.2865 13.2855 13.065 12.9533L10.5185 8.77371C10.2971 8.44156 9.96493 8.2478 9.57742 8.2478Z" fill="#3E064F"/>
<path d="M9.71582 12.372C8.83008 13.0086 8.19345 13.6453 7.97202 14.1989L12.1516 14.0881C12.5945 14.0881 12.8436 13.5899 12.6222 13.2301L10.9614 10.5452C10.3248 11.0988 9.8819 11.7077 9.71582 12.372Z" fill="#B27E38"/>
<path d="M18.0197 14.1435C18.4072 13.9221 18.767 13.673 19.0992 13.4515C20.2894 12.5658 20.9537 11.68 20.7046 11.0157C20.5662 10.6282 20.1233 10.3791 19.4867 10.2407C19.1822 9.79782 18.767 9.43799 18.2411 9.24423C17.1062 8.77368 17.992 7.61114 17.2723 7.33434C16.7464 7.14059 15.833 8.55224 14.1999 9.35495C12.3177 10.2961 10.8507 11.4863 10.4632 12.8149C9.13455 13.7283 8.41488 14.6971 8.664 15.3891C9.07919 16.5516 12.1239 16.5239 15.4455 15.3337" fill="white"/>
<path d="M10.906 16.4963C9.54974 16.4963 8.664 16.1364 8.41488 15.4721C8.13809 14.6694 8.77472 13.673 10.2417 12.6211C10.7676 11.0157 12.5945 9.82551 14.0892 9.07816C14.8642 8.69065 15.4732 8.16474 15.9714 7.74954C16.5527 7.25131 16.9955 6.89148 17.4107 7.02988C17.909 7.22363 17.909 7.69419 17.909 8.02634C17.909 8.46921 17.9366 8.74601 18.3795 8.93977C18.9054 9.1612 19.3483 9.49336 19.6805 9.96391C20.5385 10.1577 20.8707 10.5729 20.9814 10.8773C21.2582 11.6524 20.6492 12.6211 19.2929 13.6176C18.9608 13.8667 18.601 14.0882 18.1858 14.3373C18.0474 14.4203 17.8813 14.365 17.8259 14.2266C17.7429 14.0882 17.7982 13.9221 17.9366 13.8667C18.3242 13.6453 18.684 13.4238 18.9885 13.1747C20.0956 12.372 20.6769 11.5416 20.5108 11.0434C20.3724 10.6836 19.9019 10.5175 19.5144 10.4345C19.4313 10.4068 19.376 10.3791 19.3483 10.3237C19.0715 9.90855 18.684 9.60407 18.2134 9.41032C17.4107 9.07816 17.4107 8.44153 17.4107 7.99866C17.4107 7.63883 17.3831 7.55579 17.2723 7.50043C17.1616 7.44507 16.6911 7.86026 16.3866 8.10938C15.8607 8.55225 15.224 9.07816 14.3937 9.49336C12.4007 10.4898 11.1275 11.6524 10.823 12.7872C10.7953 12.8426 10.7676 12.8979 10.7123 12.9256C9.46671 13.7837 8.83008 14.6417 9.02383 15.1953C9.35599 16.0811 12.0686 16.1918 15.4732 14.9739C15.6116 14.9185 15.7776 15.0016 15.833 15.14C15.8884 15.2784 15.8053 15.4445 15.6669 15.4998C14.0338 16.0811 12.4007 16.4409 11.0998 16.4409C10.9614 16.4963 10.9337 16.4963 10.906 16.4963Z" fill="#3E064F"/>
<path d="M9.8819 15.1953C10.0348 15.1953 10.1587 15.0714 10.1587 14.9185C10.1587 14.7656 10.0348 14.6417 9.8819 14.6417C9.72903 14.6417 9.6051 14.7656 9.6051 14.9185C9.6051 15.0714 9.72903 15.1953 9.8819 15.1953Z" fill="white"/>
<path d="M13.3418 17.4097C13.4947 17.4097 13.6186 17.2858 13.6186 17.1329C13.6186 16.9801 13.4947 16.8561 13.3418 16.8561C13.189 16.8561 13.065 16.9801 13.065 17.1329C13.065 17.2858 13.189 17.4097 13.3418 17.4097Z" fill="white"/>
<path d="M9.6051 10.0193C9.75797 10.0193 9.8819 9.89536 9.8819 9.74249C9.8819 9.58962 9.75797 9.4657 9.6051 9.4657C9.45223 9.4657 9.32831 9.58962 9.32831 9.74249C9.32831 9.89536 9.45223 10.0193 9.6051 10.0193Z" fill="#E2A749"/>
<path d="M10.4632 11.2372C10.616 11.2372 10.74 11.1133 10.74 10.9604C10.74 10.8075 10.616 10.6836 10.4632 10.6836C10.3103 10.6836 10.1864 10.8075 10.1864 10.9604C10.1864 11.1133 10.3103 11.2372 10.4632 11.2372Z" fill="#E2A749"/>
<path d="M9.18991 10.822C9.34278 10.822 9.46671 10.698 9.46671 10.5452C9.46671 10.3923 9.34278 10.2684 9.18991 10.2684C9.03704 10.2684 8.91312 10.3923 8.91312 10.5452C8.91312 10.698 9.03704 10.822 9.18991 10.822Z" fill="#E2A749"/>
<path d="M7.61217 13.6453C7.76504 13.6453 7.88896 13.5213 7.88896 13.3685C7.88896 13.2156 7.76504 13.0917 7.61217 13.0917C7.4593 13.0917 7.33537 13.2156 7.33537 13.3685C7.33537 13.5213 7.4593 13.6453 7.61217 13.6453Z" fill="#E2A749"/>
<path d="M10.74 15.3891C10.8928 15.3891 11.0168 15.2652 11.0168 15.1123C11.0168 14.9594 10.8928 14.8355 10.74 14.8355C10.5871 14.8355 10.4632 14.9594 10.4632 15.1123C10.4632 15.2652 10.5871 15.3891 10.74 15.3891Z" fill="white"/>
<path d="M10.4078 14.4756C10.5607 14.4756 10.6846 14.3517 10.6846 14.1989C10.6846 14.046 10.5607 13.9221 10.4078 13.9221C10.2549 13.9221 10.131 14.046 10.131 14.1989C10.131 14.3517 10.2549 14.4756 10.4078 14.4756Z" fill="white"/>
<path d="M7.50145 17.0222C7.65432 17.0222 7.77825 16.8983 7.77825 16.7454C7.77825 16.5926 7.65432 16.4686 7.50145 16.4686C7.34858 16.4686 7.22466 16.5926 7.22466 16.7454C7.22466 16.8983 7.34858 17.0222 7.50145 17.0222Z" fill="white"/>
<path d="M11.8471 12.6211C11.8195 12.6211 11.7641 12.6211 11.7364 12.5935C11.598 12.5381 11.5427 12.372 11.6257 12.2336C11.6534 12.1783 12.207 11.0711 13.5079 10.4621C13.6463 10.4068 13.7847 10.4621 13.8677 10.6005C13.9231 10.7389 13.8677 10.8773 13.7293 10.9604C12.5945 11.4863 12.0963 12.4827 12.0963 12.4827C12.0409 12.5658 11.9579 12.6211 11.8471 12.6211Z" fill="white"/>
<path d="M17.3554 10.0746C17.3 10.0746 17.2723 10.0746 17.217 10.0469C16.8295 9.82551 16.6911 9.49336 16.6911 9.438C16.6357 9.2996 16.7187 9.1612 16.8571 9.10584C16.9955 9.05048 17.1339 9.13352 17.1893 9.27192C17.1893 9.27192 17.2723 9.46568 17.4938 9.60407C17.6322 9.68711 17.6598 9.82551 17.6045 9.96391C17.5491 10.0193 17.4661 10.0746 17.3554 10.0746Z" fill="white"/>
<path d="M11.4873 17.7142C11.3489 17.7142 11.2382 17.6035 11.2382 17.4651C11.2382 17.3267 11.3212 17.1883 11.4873 17.1883C11.7641 17.1606 12.2623 17.0776 12.5668 17.0222C12.7052 16.9945 12.8436 17.0776 12.8713 17.216C12.899 17.3544 12.8159 17.4928 12.6775 17.5204C12.3454 17.6035 11.8195 17.6865 11.4873 17.7142C11.515 17.7142 11.515 17.7142 11.4873 17.7142Z" fill="white"/>
<path d="M21.9778 12.9256C21.9225 12.9256 21.8395 12.8979 21.8118 12.8702C21.7011 12.7595 21.7011 12.5934 21.7841 12.5104C22.2546 11.9845 22.4207 11.68 22.2823 11.4309C22.2546 11.3479 22.1439 11.2925 22.0332 11.2648C21.8948 11.2371 21.8118 11.0988 21.8394 10.9604C21.8671 10.822 22.0055 10.7389 22.1439 10.7666C22.2546 10.7943 22.5868 10.905 22.7252 11.2095C23.002 11.7907 22.5868 12.372 22.1162 12.8702C22.1162 12.8979 22.0609 12.9256 21.9778 12.9256Z" fill="white"/>
<path d="M15.4732 16.7454C15.3624 16.7454 15.2517 16.6624 15.224 16.5516C15.1687 16.4132 15.2517 16.2748 15.3901 16.2195C15.7223 16.1088 15.9714 16.0257 16.1098 15.9704C16.2482 15.915 16.3866 15.9704 16.4696 16.1088C16.525 16.2472 16.4696 16.3856 16.3312 16.4686C16.1651 16.5516 15.916 16.6347 15.5562 16.7454C15.5008 16.7454 15.4732 16.7454 15.4732 16.7454Z" fill="white"/>
<path d="M14.366 17.1052C14.2553 17.1052 14.1445 17.0222 14.1169 16.9114C14.0892 16.773 14.1445 16.6346 14.2829 16.5793C14.3383 16.5516 14.3937 16.5516 14.449 16.5239C14.5874 16.4686 14.7258 16.5516 14.7812 16.69C14.8365 16.8284 14.7535 16.9668 14.6151 17.0222C14.5597 17.0498 14.5044 17.0498 14.449 17.0775C14.4213 17.1052 14.3937 17.1052 14.366 17.1052Z" fill="white"/>
<path d="M17.1063 13.673C17.0232 13.673 16.9125 13.6176 16.8848 13.5346C16.8295 13.3962 16.8571 13.2578 16.9955 13.1747C17.3 13.0086 17.5768 12.8426 17.8259 12.6765C18.8501 12.0122 19.1269 11.5416 19.0715 11.3756C19.0161 11.2372 19.0992 11.0988 19.2376 11.0434C19.376 10.988 19.5144 11.0711 19.5697 11.2095C19.8189 11.8738 18.9054 12.6211 18.1027 13.147C17.8259 13.3131 17.5491 13.4792 17.217 13.6453C17.1893 13.673 17.1616 13.673 17.1063 13.673Z" fill="white"/>
<path d="M16.608 14.8355C16.7188 14.7801 16.8295 14.7248 16.9402 14.6971L16.608 14.8355Z" fill="white"/>
<path d="M16.608 15.0846C16.4973 15.0846 16.4143 15.0293 16.3589 14.9186C16.3035 14.7802 16.3589 14.6141 16.4973 14.5587C16.608 14.5034 16.7187 14.448 16.8018 14.4203C16.9402 14.365 17.1063 14.4203 17.1616 14.5587C17.217 14.6971 17.1616 14.8632 17.0232 14.9186C16.9125 14.9739 16.8018 15.0293 16.6911 15.0846C16.6911 15.0846 16.6634 15.0846 16.608 15.0846Z" fill="#3E064F"/>
<path d="M19.2376 16.607C19.1269 16.4409 18.9885 16.3302 18.8224 16.2195C18.2411 15.8873 17.4938 16.0811 17.1339 16.6624C16.8018 17.2436 16.9955 17.991 17.5768 18.3508C17.7429 18.4615 17.9366 18.4892 18.1304 18.5169C17.7982 19.0982 17.992 19.8455 18.6009 20.2053C19.1822 20.5375 19.9296 20.3437 20.2894 19.7625C20.5385 19.3473 20.4832 18.849 20.2617 18.4892C20.7046 18.5169 21.1475 18.2954 21.3966 17.8803C21.7287 17.299 21.535 16.5516 20.9537 16.1918C20.3171 15.8043 19.5697 16.0257 19.2376 16.607Z" fill="#00B76A"/>
<path d="M19.2099 20.6205C18.9608 20.6205 18.7117 20.5652 18.4626 20.4268C17.8536 20.067 17.5768 19.375 17.7706 18.7107C17.6598 18.683 17.5768 18.6276 17.4661 18.5723C16.7464 18.1571 16.4973 17.2436 16.9125 16.524C17.1063 16.1641 17.4384 15.915 17.8259 15.832C18.2134 15.7213 18.6286 15.7766 18.9608 15.9704C19.0438 16.0257 19.1545 16.0811 19.2376 16.1641C19.7081 15.6936 20.4555 15.5552 21.0644 15.915C21.4243 16.1088 21.6734 16.4409 21.7564 16.8284C21.8671 17.216 21.8118 17.6312 21.618 17.9633C21.3966 18.3231 21.0644 18.5723 20.6492 18.683C20.76 19.0705 20.7323 19.5134 20.5108 19.8732C20.234 20.3437 19.7358 20.6205 19.2099 20.6205ZM18.2134 16.3302C18.1304 16.3302 18.0474 16.3302 17.9643 16.3579C17.7152 16.4133 17.5215 16.5793 17.3831 16.8008C17.1063 17.2713 17.2723 17.8526 17.7429 18.1017C17.8813 18.1847 18.0197 18.2124 18.1581 18.2401C18.2411 18.2401 18.3242 18.2955 18.3795 18.3785C18.4349 18.4615 18.4349 18.5723 18.3795 18.6553C18.1304 19.1258 18.2688 19.7071 18.7393 19.9562C19.2099 20.233 19.7912 20.067 20.0403 19.5964C20.234 19.2919 20.2064 18.9044 20.0126 18.5999C19.9572 18.5169 19.9572 18.4062 20.0126 18.3231C20.068 18.2401 20.151 18.1847 20.2617 18.1847C20.6216 18.2124 20.9537 18.0187 21.1475 17.7142C21.2859 17.4928 21.3135 17.2436 21.2305 16.9945C21.1751 16.7454 21.0091 16.5517 20.7876 16.4133C20.3171 16.1641 19.7358 16.3025 19.4867 16.7731C19.4313 16.8561 19.3483 16.9115 19.2653 16.9115C19.1822 16.9115 19.0715 16.8561 19.0438 16.8008C18.9608 16.6624 18.8501 16.5793 18.7117 16.4963C18.5456 16.3579 18.3795 16.3302 18.2134 16.3302Z" fill="#3E064F"/>
<path d="M21.3689 17.6311C21.5073 17.1052 21.2859 16.5516 20.7876 16.2748C20.2064 15.9427 19.459 16.1364 19.0992 16.7177C18.9885 16.5516 18.8501 16.4409 18.684 16.3302C18.4902 16.2195 18.2965 16.1641 18.1027 16.1641C18.1027 16.1918 18.1027 16.1918 18.1027 16.2195C18.075 17.0222 18.684 17.7142 19.5144 17.7695C20.0956 17.7972 20.5939 17.4927 20.8707 17.0222C20.9537 17.2436 21.1475 17.4651 21.3689 17.6311Z" fill="#009F61"/>
<path d="M19.2099 20.6205C18.9608 20.6205 18.7117 20.5652 18.4626 20.4268C17.8536 20.067 17.5768 19.375 17.7706 18.7107C17.6598 18.683 17.5768 18.6276 17.4661 18.5723C16.7464 18.1571 16.4973 17.2436 16.9125 16.524C17.1063 16.1641 17.4384 15.915 17.8259 15.832C18.2134 15.7213 18.6286 15.7766 18.9608 15.9704C19.0438 16.0257 19.1545 16.0811 19.2376 16.1641C19.7081 15.6936 20.4555 15.5552 21.0644 15.915C21.4243 16.1088 21.6734 16.4409 21.7564 16.8284C21.8671 17.216 21.8118 17.6312 21.618 17.9633C21.3966 18.3231 21.0644 18.5723 20.6492 18.683C20.76 19.0705 20.7323 19.5134 20.5108 19.8732C20.234 20.3437 19.7358 20.6205 19.2099 20.6205ZM18.2134 16.3302C18.1304 16.3302 18.0474 16.3302 17.9643 16.3579C17.7152 16.4133 17.5215 16.5793 17.3831 16.8008C17.1063 17.2713 17.2723 17.8526 17.7429 18.1017C17.8813 18.1847 18.0197 18.2124 18.1581 18.2401C18.2411 18.2401 18.3242 18.2955 18.3795 18.3785C18.4349 18.4615 18.4349 18.5723 18.3795 18.6553C18.1304 19.1258 18.2688 19.7071 18.7393 19.9562C19.2099 20.233 19.7912 20.067 20.0403 19.5964C20.234 19.2919 20.2064 18.9044 20.0126 18.5999C19.9572 18.5169 19.9572 18.4062 20.0126 18.3231C20.068 18.2401 20.151 18.1847 20.2617 18.1847C20.6216 18.2124 20.9537 18.0187 21.1475 17.7142C21.2859 17.4928 21.3135 17.2436 21.2305 16.9945C21.1751 16.7454 21.0091 16.5517 20.7876 16.4133C20.3171 16.1641 19.7358 16.3025 19.4867 16.7731C19.4313 16.8561 19.3483 16.9115 19.2653 16.9115C19.1822 16.9115 19.0715 16.8561 19.0438 16.8008C18.9608 16.6624 18.8501 16.5793 18.7117 16.4963C18.5456 16.3579 18.3795 16.3302 18.2134 16.3302Z" fill="#3E064F"/>
<path d="M22.1716 14.8909C22.2547 14.7248 22.31 14.5311 22.3377 14.3373C22.3654 13.6453 21.8395 13.0917 21.1752 13.0364C20.4832 13.0087 19.9296 13.5346 19.8742 14.1989C19.8742 14.3927 19.9019 14.5864 19.9849 14.7525C19.3206 14.7248 18.7394 15.2507 18.7117 15.9151C18.684 16.5794 19.2099 17.1606 19.8742 17.216C20.3448 17.2437 20.7876 16.9946 21.0091 16.607C21.2028 17.0222 21.5903 17.299 22.0609 17.3267C22.7529 17.3544 23.3065 16.8285 23.3618 16.1642C23.3895 15.4999 22.8636 14.9186 22.1716 14.8909Z" fill="#00B76A"/>
<path d="M22.1163 17.6035C22.0886 17.6035 22.0609 17.6035 22.0332 17.6035C21.618 17.5758 21.2305 17.382 20.9537 17.0776C20.6492 17.3544 20.2617 17.5204 19.8465 17.4928C19.0161 17.4651 18.3795 16.7454 18.4072 15.915C18.4349 15.223 18.9608 14.6418 19.5974 14.5034C19.5697 14.3926 19.5697 14.2819 19.5697 14.1712C19.5974 13.7837 19.7635 13.3962 20.068 13.1194C20.3724 12.8426 20.76 12.7042 21.1475 12.7319C21.535 12.7595 21.9225 12.9256 22.1993 13.2301C22.4761 13.5346 22.6145 13.9221 22.5868 14.3096C22.5868 14.4203 22.5591 14.531 22.5314 14.6418C23.1681 14.8355 23.6109 15.4445 23.5833 16.1641C23.5833 16.9945 22.919 17.6035 22.1163 17.6035ZM20.9814 16.3579C21.0091 16.3579 21.0091 16.3579 20.9814 16.3579C21.0921 16.3579 21.1751 16.4132 21.2305 16.524C21.3689 16.8561 21.7011 17.0776 22.0609 17.0776C22.5868 17.1052 23.0297 16.69 23.0574 16.1641C23.085 15.6382 22.6698 15.1953 22.1439 15.1677C22.0609 15.1677 21.9779 15.1123 21.9225 15.0293C21.8671 14.9462 21.8671 14.8355 21.9225 14.7525C22.0055 14.6141 22.0332 14.4757 22.0332 14.3373C22.0332 14.0882 21.9502 13.8391 21.7841 13.6453C21.618 13.4515 21.3689 13.3408 21.1198 13.3408C20.8707 13.3408 20.6216 13.4239 20.4278 13.5899C20.234 13.756 20.1233 14.0051 20.1233 14.2542C20.1233 14.3926 20.151 14.5587 20.2064 14.6971C20.234 14.7802 20.234 14.8909 20.1787 14.9739C20.1233 15.057 20.0403 15.0846 19.9296 15.0846C19.4037 15.057 18.9608 15.4721 18.9331 15.9981C18.9054 16.524 19.3206 16.9668 19.8465 16.9945C20.2064 17.0222 20.5385 16.8284 20.7323 16.524C20.8153 16.4132 20.8984 16.3579 20.9814 16.3579Z" fill="#3E064F"/>
<path d="M21.1198 14.7248C21.3949 14.7248 21.618 14.5017 21.618 14.2266C21.618 13.9514 21.3949 13.7283 21.1198 13.7283C20.8446 13.7283 20.6216 13.9514 20.6216 14.2266C20.6216 14.5017 20.8446 14.7248 21.1198 14.7248Z" fill="#12C96A"/>
<path d="M19.5144 16.3856C19.4037 16.3856 19.2929 16.3025 19.2653 16.1918C19.1269 15.7489 19.4036 15.4445 19.6251 15.3614C19.7635 15.3061 19.9019 15.3614 19.9849 15.4998C20.0403 15.6382 19.9849 15.7766 19.8465 15.8597C19.7081 15.915 19.7635 16.0257 19.7635 16.0534C19.8188 16.1918 19.7358 16.3302 19.5974 16.3856C19.5974 16.3856 19.542 16.3856 19.5144 16.3856Z" fill="#12C96A"/>
<path d="M5.37013 18.3231C6.89251 22.5304 10.6846 25.8797 18.3242 23.1117C25.936 20.3437 26.711 15.3338 25.161 11.1265C25.9637 13.3131 22.1716 16.69 16.6911 18.683C11.2105 20.6482 6.14516 20.4821 5.37013 18.3231Z" fill="#E6E6E6"/>
<path d="M7.1693 19.8455C8.19344 22.6135 11.7641 24.7725 18.075 22.4751C24.386 20.1777 25.7423 16.2195 24.7458 13.4515L20.8707 16.8284L16.2205 18.9044L11.8195 19.9562L7.1693 19.8455Z" fill="#C8C8C8"/>
<path d="M23.085 15.1123C23.3065 16.4963 23.085 17.9633 22.1993 19.3472C22.0609 19.541 22.3377 19.7624 22.5038 19.5964C24.1092 17.8525 24.469 15.9427 24.1369 14.1435L23.085 15.1123Z" fill="white"/>
<path d="M7.36306 19.7625C7.25234 19.7901 7.19698 19.9285 7.25234 20.0392C7.86129 21.4786 9.16223 22.7242 11.1828 23.2224C11.4043 23.2778 11.5427 22.9733 11.3212 22.8349C10.1864 22.1706 9.30062 21.1464 8.69167 20.0116L7.36306 19.7625Z" fill="#B4B4B4"/>
<path d="M13.2034 24.3849C11.8195 24.3849 10.5462 24.1081 9.43902 23.5545C7.50145 22.6134 6.00676 20.8143 5.12102 18.4061L5.61925 18.2124C6.33892 20.2053 11.3766 20.2884 16.608 18.3785C19.2099 17.4374 21.535 16.1364 23.085 14.7248C24.5797 13.3962 25.244 12.0952 24.8842 11.1818L25.3824 10.988C26.2682 13.4238 26.2682 15.7489 25.3824 17.7142C24.3029 20.1223 21.9502 22.0045 18.3795 23.3054C16.4973 24.0528 14.7812 24.3849 13.2034 24.3849ZM6.25588 19.6517C7.08626 21.2295 8.2488 22.392 9.68814 23.084C11.9302 24.1635 14.8088 24.1081 18.2411 22.8349C25.3824 20.233 26.0191 15.832 25.3547 12.7042C25.0503 13.4792 24.4136 14.3096 23.4725 15.14C21.8395 16.5793 19.4867 17.9079 16.8018 18.9044C12.3454 20.5375 8.2488 20.7589 6.25588 19.6517Z" fill="#3E064F"/>
</svg>
