<?xml version="1.0" encoding="utf-8"?>
<!-- Generator: Adobe Illustrator 16.0.0, SVG Export Plug-In . SVG Version: 6.00 Build 0)  -->
<!DOCTYPE svg PUBLIC "-//W3C//DTD SVG 1.1//EN" "http://www.w3.org/Graphics/SVG/1.1/DTD/svg11.dtd">
<svg version="1.1" id="katman_1" xmlns="http://www.w3.org/2000/svg" xmlns:xlink="http://www.w3.org/1999/xlink" x="0px" y="0px"
	 width="369.569px" height="370px" viewBox="0 0 369.569 370" enable-background="new 0 0 369.569 370" xml:space="preserve">
<g>
	<path fill="#FFFFFF" d="M126.006,155.03c5.216-4.5,10.588-5,16.104-1.502c1.384-10.573-4.768-15.07-18.453-13.495
		c-0.872,3.886-0.456,8.091,1.245,12.62C125.351,153.451,125.717,154.244,126.006,155.03z M139.459,149.054
		c-6.336-0.959-10.691,0.247-13.065,3.618C128.613,148.089,132.967,146.886,139.459,149.054z"/>
	<path fill="#FFFFFF" d="M234.901,256.958c-3.17,5.227-3.056,11.471-1.942,17.288c2.584,13.481,4.071,25.872,4.45,37.154
		c0.865,0.895,1.712,2.687,2.492,5.369c1.836-4.061,3.208-8.707,4.112-13.939c1.191-6.865,1.576-14.727,1.168-23.58
		c-1.865-2.324-3.873-5.16-6.031-8.517C236.371,266.404,233.567,262.448,234.901,256.958z"/>
	<path fill="#FFFFFF" d="M335.966,110.021c0.3,0.563,0.589,1.131,0.869,1.702c0.497,1.016,0.967,2.037,1.426,3.056
		c0.077,0.169,0.154,0.337,0.226,0.506c0.239,0.534,0.475,1.069,0.707,1.598c0.156,0.353,0.312,0.703,0.468,1.057
		c0.152,0.341,0.302,0.685,0.455,1.024c0.564,1.197,1.044,2.454,1.509,3.667l1.614,4.184l9.089-3.256
		c-3.504-9.53-7.88-18.833-13.033-27.697l-20.19,11.941l-0.322,0.146l-0.098,0.048l-0.245,0.081l-0.061,0.104l-0.035-0.17
		L318.02,108h-0.003l-0.302-0.163l-0.08-0.269l-0.2-0.083l-0.071-0.116L317.15,107h-0.003c-4.863-8-10.553-15.9-16.919-23.131
		l-0.003,0.118l-0.002,0.009c-0.252-0.287-0.379-0.654-0.354-1.031c0.026-0.379,0.197-0.727,0.483-0.979l9.316-8.188
		c0.287-0.252,0.662-0.378,1.041-0.35c0.382,0.026,0.735,0.204,0.983,0.492l3.195,3.699c0.354,0.413,0.701,0.836,1.035,1.26
		l0.303,0.388c0.226,0.288,0.452,0.576,0.671,0.859c0.248,0.322,0.5,0.645,0.754,0.966l0.309,0.398
		c0.366,0.476,0.72,0.924,1.076,1.373l0.22,0.279c0.579,0.739,1.171,1.493,1.731,2.278l2.002,2.84l7.924-5.48
		c-5.831-8.294-12.428-16.166-19.64-23.438L294.77,76.027l-0.22,0.18l-0.111,0.053l-0.137,0.062l-0.13,0.021l-0.137,0.002
		l-0.134-0.132L293.758,76h-0.003l-0.139,0.212l-0.137,0.179l-0.132-0.018l-0.156-0.037l-0.136-0.054l-0.191-0.134L292.678,76h0.106
		v0.04l0.048-0.012L292.678,76h0.068c-6.795-7-14.284-12.904-22.253-18.28c-0.315-0.212-0.532-0.555-0.605-0.927
		c-0.07-0.373,0.01-0.741,0.22-1.056l6.954-10.265c0.214-0.318,0.548-0.532,0.926-0.601c0.376-0.068,0.768,0.018,1.08,0.24
		l0.006,0.006l5.987,4.22l5.827,4.552c0.162,0.121,0.318,0.253,0.478,0.38l0.411,0.329c0.295,0.246,0.585,0.497,0.869,0.744
		l0.939,0.813l6.279-7.291c-7.804-6.612-16.181-12.565-24.937-17.718l-11.725,20.31l-0.166,0.227l-0.127,0.11l-0.08,0.061
		l-0.149,0.066l-0.086-0.002l-0.19-0.382L262.329,51h-0.006l-0.321,0.596l-0.038,0.387l-0.057,0.059l-0.249-0.025l-0.096-0.417
		L261.25,51h-0.003c-8.294-5-17.082-8.327-26.12-11.466l-0.01,0.317c-0.745-0.259-1.139-0.987-0.881-1.731l4.064-11.677
		c0.255-0.726,1.038-1.099,1.77-0.876c0.525,0.161,1.044,0.354,1.556,0.54l0.213,0.078c0.216,0.079,0.426,0.166,0.639,0.248
		c0.357,0.136,0.717,0.271,1.064,0.407l0.187,0.073c0.334,0.131,0.672,0.262,1.009,0.39l2.234,0.862l2.336,0.9l4.526,2.007
		c0.362,0.163,0.725,0.32,1.085,0.479c0.693,0.307,1.403,0.617,2.109,0.953l4.191-8.641c-9.21-4.373-18.848-7.963-28.682-10.683
		l-6.079,22.653l-0.178,0.396l-0.039,0.061l-0.28,0.298l-0.054,0.042c-0.226,0.163-0.497,0.268-0.783,0.277l-0.054,0.028
		l-0.022,0.03L224.713,37h-0.003c-9.217-4-18.762-5-28.364-5h-0.01c-0.375,0-0.729-0.108-0.973-0.394
		c-0.249-0.288-0.373-0.595-0.344-0.972l0.929-12.424c0.057-0.785,0.741-1.209,1.527-1.209h0.006h0.003l1.416,0.012l1.009-0.135
		l0.038,0.062c0.761,0.052,1.63,0.141,2.499,0.266l7.247,0.908l5.903,1.029l1.833-9.467c-10.01-1.864-20.226-2.851-30.426-2.964
		l-0.104,23.48c-0.007,0.783-0.608,1.462-1.391,1.466l-1.912,0.098c-10.085,0.064-19.814,1.286-29.814,3.278V35h-0.237h-0.007
		l-0.295-0.132l-0.019-0.266l-0.315,0.003l-0.124-0.014l-0.242-0.104l-0.076-0.034c-0.315-0.21-0.535-0.542-0.611-0.914
		l-2.476-12.172c-0.137-0.666,0.216-1.357,0.815-1.625l0.047-0.096l0.194-0.274L150.465,19h0.003l0.022,0.36
		c0.49-0.119,0.977,0.129,1.458,0.045c0.5-0.091,0.996-0.164,1.486-0.247l1.906-0.323c0.567-0.093,1.118-0.188,1.671-0.287
		l0.048-0.008c1.028-0.182,2.091-0.372,3.16-0.512l4.965-0.612l2.317-0.29c0.359-0.039,0.716-0.08,1.066-0.106l-0.813-9.591
		c-10.188,0.952-20.293,2.729-30.099,5.385l6.322,22.492c0.214,0.76-0.207,0.955-0.967,1.167C133.788,39.05,124.814,43,116.25,46
		h0.534v1.187l-0.321,0.391l-0.234,0.011l-0.31,0.092l-0.187,0.026l-0.145,0.015l-0.07,0.007l-0.096-0.013l-0.187-0.025l-0.16-0.037
		l-0.21-0.092l-0.208-0.13l-0.108-0.088l-0.137-0.145l-0.079-0.114l-0.103-0.148l-5.531-11.103
		c-0.344-0.692-0.077-1.534,0.607-1.898c0.246-0.13,0.496-0.251,0.742-0.378c1.859-0.952,3.758-1.808,5.623-2.63
		c0.166-0.073,0.333-0.146,0.498-0.22c0.694-0.306,1.388-0.611,2.082-0.923c1.197-0.563,2.45-1.043,3.663-1.508l4.185-1.613
		l-3.255-9.091c-9.533,3.503-18.838,7.877-27.706,13.029l12.044,20.188c0.402,0.679,0.603,1.547-0.397,1.949v-0.017
		C98.784,57.585,90.53,63,83.295,69h-0.002l-0.227,0.482l-0.029,0.167l-0.226,0.127l-0.028-0.36L82.541,69h-0.016h-0.178h-0.089
		c-0.379,0-0.732,0.318-0.983,0.034l-8.186-8.954c-0.252-0.286-0.379-0.585-0.354-0.965c0.026-0.38,0.204-0.695,0.49-0.944
		l1.709-1.456l1.993-1.713c0.344-0.293,0.694-0.57,1.041-0.849l0.213-0.171c0.423-0.337,0.847-0.664,1.264-0.985
		c0.149-0.116,0.298-0.234,0.448-0.351c0.302-0.233,0.602-0.464,0.898-0.701c0.48-0.367,0.929-0.722,1.378-1.078
		c0.258-0.202,0.522-0.408,0.786-0.613c0.576-0.452,1.166-0.905,1.773-1.337l2.839-2.001l-2.89-4.18l-2.591-3.745
		c-8.293,5.831-16.167,12.429-23.437,19.641l16.667,16.501l0.181,0.218l0.086,0.164l0.044,0.083l0.063,0.2l0.02,0.067l0.029,0.279
		l-0.003,0.04l-0.025,0.243l-0.022,0.098l-0.051,0.199l-0.044,0.127l-0.077,0.232L75.415,77h-0.032h0.054h0.115
		c-6.763,7-12.768,14.435-17.768,22.4v0.003l-0.382,0.005c-0.214,0.314-0.892,0.532-1.265,0.604l-0.286,0.025l-0.122-0.016
		l-0.209-0.032l-0.177-0.053l-0.163-0.077l-0.141-0.067l-10.274-6.951c-0.318-0.215-0.534-0.547-0.605-0.926
		c-0.069-0.378,0.017-0.767,0.239-1.079l2.387-3.39l1.836-2.604l2.775-3.553l1.776-2.274c0.226-0.302,0.468-0.599,0.71-0.892
		c0.245-0.29,0.493-0.577,0.738-0.859l0.819-0.948l-7.291-6.275c-6.614,7.803-12.567,16.181-17.719,24.934l20.308,11.727
		l0.229,0.166l0.103,0.122l0.059,0.083l0.07,0.174l-0.225,0.062c0.082,0.167-0.193,0.351-0.193,0.536v0.063l0.33,0.218l0.222,0.076
		l0.003,0.194l-0.282,0.144l-0.272,0.114v0.002c-4,8.296-8.577,17.086-11.715,26.13l0.108,0.021l-0.112,0.318l-0.043,0.099
		l-0.227,0.235l-0.117,0.073l-0.197,0.099l-0.147,0.058l-0.305,0.048l-0.073,0.01c-0.152,0-0.312-0.026-0.468-0.08L25.772,131.6
		c-0.726-0.251-1.124-1.031-0.897-1.765c0.153-0.5,0.324-0.988,0.5-1.475c0.245-0.679,0.497-1.351,0.751-2.002l0.066-0.169
		c0.134-0.343,0.265-0.685,0.395-1.025l1.509-3.91l0.254-0.66l2.006-4.525c0.165-0.366,0.323-0.726,0.481-1.085
		c0.305-0.694,0.618-1.404,0.956-2.11l-8.641-4.195c-4.373,9.214-7.958,18.85-10.679,28.686l22.664,6.077l0.288,0.102
		c0.509,0.256,0.856,0.795,0.821,1.362l0.113,0.285c-2.47,9.217-4.575,18.762-4.575,28.367v0.006c0,0.379-0.438,0.729-0.724,0.978
		c-0.261,0.223-0.779,0.346-1.12,0.346l-0.129-0.005l-12.379-0.927c-0.786-0.059-1.38-0.743-1.323-1.529l0.049-0.708l0.125-1.734
		l0.028-0.403l0.012-0.211l0.028-0.344l0.022-0.287c0.016-0.175,0.035-0.347,0.051-0.518l0.013-0.112
		c0.022-0.216,0.051-0.433,0.083-0.652l0.063-0.52l0.824-6.721l1.021-5.909l-9.475-1.829c-1.865,10.011-2.864,20.236-2.979,30.438
		l23.457,0.124l0.137,0.014l0.146,0.014l0.13,0.042l0.137,0.045l0.117,0.063l0.125,0.067l0.098,0.079l0.115,0.096l0.073,0.089
		l0.102,0.124l0.054,0.099l0.079,0.142l0.042,0.113l0.057,0.151l0.038,0.127l0.06,0.135l0.096,1.81
		C31.103,196.329,32.325,206,34.317,216h0.467v0.36c0,0.372-0.41,0.757-0.62,1.074c-0.207,0.316-0.966,0.536-1.335,0.612
		l-12.144,2.477l-0.282,0.028c-0.372,0-0.719-0.149-0.98-0.398l-0.006-0.006l-0.171-0.197l-0.006-0.01
		c-0.099-0.14-0.178-0.299-0.219-0.475l-0.005-0.021l-0.003-0.012l-0.021-0.095c-0.112-0.467-0.204-0.928-0.283-1.383
		c-0.086-0.473-0.172-0.939-0.25-1.403l-0.355-1.99c-0.094-0.577-0.217-1.141-0.318-1.706c-0.044-0.252-0.137-0.516-0.181-0.773
		c-0.125-0.702-0.415-1.412-0.513-2.132l-0.309-0.265v-0.002l-0.058-2.645l-0.342-4.637c-0.038-0.36-0.047-0.71-0.073-1.061
		l-9.56,0.82c0.955,10.188,2.783,20.307,5.441,30.112l22.593-6.293l0.281-0.037L35.275,226h0.07c0.373,0,0.716,0.196,0.948,0.494
		l0.007-0.048l0.143,0.24l0.102,0.283c2.579,9.227,6.05,18.286,10.318,26.856c0.354,0.704,0.067,1.633-0.64,1.982l-11.104,5.727
		c-0.173,0.086-0.354,0.467-0.535,0.467h-0.01l-0.088-0.317l-0.118-0.32l-0.138-0.031l-0.174-0.045l-0.264-0.115l-0.111-0.078
		l-0.167-0.131l-0.087-0.092l-0.188-0.261l-0.233-0.013l-0.221-0.007v-0.002c-1-2.248-2.007-4.587-3.006-6.85
		c-0.229-0.525-0.356-1.05-0.592-1.572c-0.073-0.172-0.088-0.344-0.164-0.513c-0.073-0.159-0.106-0.321-0.176-0.483
		c-0.472-1.047-0.869-2.123-1.271-3.174l-1.586-4.194l-9.04,3.259c3.504,9.529,7.978,18.836,13.13,27.702l20.375-11.938
		c0.678-0.401,0.33-0.176,2.33,0.502v0.003c5,8.209,10.213,16.041,16.579,23.272l-0.493,0.003l-0.086,0.003v0.004
		c0,0.282,0.471,0.655,0.445,1.033c-0.025,0.379-0.181,0.732-0.468,0.981l-9.277,8.188c-0.261,0.232-0.58,0.356-0.926,0.356
		l-0.086-0.004c-0.382-0.025-0.731-0.203-0.979-0.493l-0.005-0.002l-3.19-3.699c-0.255-0.299-0.5-0.604-0.745-0.906l-0.287-0.348
		c-0.334-0.423-0.665-0.849-0.986-1.267c-0.175-0.226-0.349-0.448-0.525-0.675c-0.175-0.223-0.347-0.445-0.525-0.668
		c-0.366-0.48-0.722-0.933-1.079-1.382c-0.649-0.82-1.32-1.671-1.948-2.552l-2.001-2.839l-7.925,5.482
		c5.831,8.29,12.428,16.166,19.641,23.435l16.501-16.662l0.22-0.177l0.149-0.072l0.096-0.031l0.217-0.027l0.048-0.174l0.283-0.11
		h0.018l0.039,0.084l0.232-0.018l0.085,0.084l0.218,0.087l0.136,0.06l0.258,0.093l0.124,0.128l0.242,0.058v0.004
		c7,6.766,14.115,12.921,22.084,18.296c0.315,0.214,0.247,0.542,0.32,0.914c0.07,0.372,0.048,0.757-0.163,1.072l-6.925,10.271
		c-0.214,0.318-0.534,0.537-0.913,0.604l-0.247,0.025l-0.025-0.006l-0.336-0.052l-0.101-0.038l-0.309-0.162l-0.214-0.003
		l-0.171-0.003v-0.004l-5.822-4.22l-5.782-4.551c-0.303-0.227-0.537-0.465-0.827-0.707c-0.293-0.245-0.548-0.492-0.829-0.737
		l-0.936-0.819l-6.27,7.294c7.804,6.612,16.185,12.571,24.94,17.724l11.727-20.303l0.166-0.211l0.169-0.112l0.035,0.087l0.233,0.059
		h0.003c0.168,0,0.356-0.338,0.544-0.352l0.067,0.068l0.223,0.284l0.114-1l0.204,0.279l0.023,0.192l0.017,0.161v0.003
		c9,4.794,17.163,8.815,26.208,11.958c0.745,0.26,1.116,1.073,0.855,1.818l-4.01,11.723c-0.255,0.726-1.009,1.127-1.741,0.901
		c-0.496-0.153-0.97-0.318-1.454-0.49c-0.681-0.245-1.35-0.492-2.005-0.747c-0.401-0.155-0.795-0.287-1.197-0.437l-4.275-1.973
		L119.883,341h-0.003l-4.526-1.732l-0.372-0.071c-0.246-0.108-0.487-0.124-0.729-0.232c-0.687-0.302-1.394-0.565-2.094-0.898
		l-4.192,8.662c9.211,4.373,18.848,7.974,28.683,10.694l6.079-22.652c0.178-0.668,0.799-1.101,1.461-1.06l0.15,0.011l0.139-0.239
		c9.217,2.47,18.759,4.517,28.364,4.517h0.01c0.375,0,0.729,0.497,0.974,0.784c0.249,0.286,0.369,0.832,0.341,1.207l-0.926,12.432
		c-0.057,0.786-0.735,1.392-1.528,1.348l-2.438-0.164c-0.385-0.025-0.799-0.047-1.226-0.085c-0.43-0.035-0.869-0.079-1.308-0.142
		l-1.27-0.155l-5.971-0.734l-5.907-1.018l-1.831,9.475c10.013,1.865,20.236,2.864,30.436,2.979l0.125-23.459l0.032-0.286l0.02-0.067
		l0.063-0.197l0.041-0.076l0.089-0.165l0.057-0.07l0.118-0.14l0.076-0.065l0.134-0.113l0.099-0.054l0.144-0.085l0.114-0.046
		l0.153-0.07l0.133-0.057l0.15-0.105l1.963-0.297c10.085-0.067,20.156-0.573,29.93-3.573h0.01c0.372,0,0.754,0.469,1.072,0.676
		c0.315,0.21,0.534,0.948,0.611,1.321l2.476,12.183c0.137,0.665-0.216,1.331-0.814,1.598l-0.07,0.033l-0.172,0.063l-0.029,0.009
		l-0.003,0.003l-0.058,0.01c-0.483,0.118-0.958,0.207-1.429,0.29c-0.321,0.061-0.639,0.115-0.958,0.168l-2.429,0.418
		c-0.583,0.095-1.149,0.196-1.719,0.298c-0.942,0.166-1.916,0.335-2.893,0.472l-0.268,0.041l-4.961,0.608l-2.317,0.286
		c-0.363,0.039-0.716,0.067-1.066,0.093l0.814,9.566c10.188-0.951,20.299-2.778,30.105-5.433l-6.311-22.591
		c-0.214-0.757,0.232-1.547,0.993-1.76c9.229-2.577,18.252-6.051,26.817-10.318c0.707-0.353,1.563-0.063,1.917,0.643l5.531,11.103
		c0.344,0.693,0.076,1.536-0.608,1.899c-0.563,0.299-1.137,0.589-1.709,0.872c-1.715,0.84-3.456,1.606-5.156,2.358
		c-0.426,0.185-0.85,0.375-1.273,0.56c-0.267,0.121-0.538,0.239-0.805,0.36c-0.2,0.095-0.412,0.175-0.616,0.264
		c-0.643,0.287-1.287,0.558-1.939,0.812c-0.372,0.144-0.748,0.293-1.117,0.434l-4.179,1.613l3.253,9.09
		c9.532-3.505,18.828-7.881,27.695-13.033l-11.945-20.191c-0.404-0.681-0.211-1.556,0.471-1.957
		c8.211-4.863,17.223-10.557,23.223-16.922v-0.004c0-0.251,0.707-0.378,1.083-0.353c0.378,0.021,0.765,0.197,1.016,0.48l8.168,9.318
		c0.252,0.287,0.333,0.662,0.308,1.041c-0.025,0.382-0.199,0.734-0.485,0.983l-0.091,0.003v0.004l-3.609,3.191
		c-0.828,0.707-1.547,1.369-2.375,2.009c-0.455,0.35-0.935,0.703-1.383,1.06c-0.474,0.366-0.935,0.72-1.384,1.072
		c-0.684,0.545-1.403,1.096-2.129,1.63l-0.438,0.321l-2.84,2.002l5.48,7.925c8.29-5.827,16.161-12.425,23.437-19.64l-16.668-16.499
		l-0.182-0.22l-0.08-0.149l-0.051-0.097l-0.063-0.2l-0.019-0.066l-0.029-0.276l0.006-0.048l0.019-0.229l0.032-0.102l0.048-0.166
		l0.061-0.117l0.069-0.128l0.182-0.226c6.766-6.798,12.925-14.283,18.297-22.253c0.213-0.315,0.541-0.532,0.914-0.604
		c0.373-0.073,0.758,0.006,1.073,0.219l10.273,6.951c0.318,0.217,0.535,0.551,0.605,0.926c0.07,0.379-0.016,0.768-0.239,1.083
		l-0.003,0.006l-4.22,5.983l-4.555,5.83l-0.264,0.335c-0.15,0.188-0.299,0.379-0.452,0.566l-0.315,0.366
		c-0.141,0.162-0.28,0.327-0.42,0.489l-0.814,0.939l7.292,6.276c6.614-7.804,12.565-16.178,17.717-24.933l-20.312-11.726
		l-0.229-0.168l-0.133-0.141l-0.058-0.063l-0.108-0.172l-0.013-0.063c-0.083-0.169-0.118-0.351-0.118-0.535v-0.085l-0.019-0.194
		l0.01-0.089l0.035-0.182l0.063-0.146l0.049-0.115c4.796-8.297,8.819-17.087,11.957-26.129c0.261-0.745,1.075-1.14,1.82-0.882
		l11.718,4.064c0.726,0.251,1.121,1.031,0.897,1.766c-0.341,1.121-0.757,2.206-1.168,3.26l-0.083,0.216
		c-0.155,0.401-0.312,0.799-0.464,1.204l-0.694,1.798l-1.063,2.759l-2.008,4.529c-0.144,0.321-0.283,0.637-0.424,0.951l-0.063,0.146
		c-0.303,0.69-0.614,1.396-0.949,2.101l8.641,4.191c4.373-9.21,7.963-18.845,10.684-28.682l-22.653-6.079
		c-0.191-0.051-0.363-0.137-0.51-0.252c-0.366-0.286-0.576-0.738-0.547-1.212l0.006-0.287c2.47-9.22,3.765-18.765,4.765-28.363
		v-0.002v-0.002l0.045-0.006c0.025-0.377,0.225-0.729,0.51-0.974c0.29-0.248,0.672-0.372,1.051-0.344l12.373,0.928
		c0.787,0.059,1.378,0.743,1.321,1.529l-0.177,2.437l-0.002,0.036c-0.051,0.764-0.111,1.633-0.235,2.498l-0.194,1.579l-0.697,5.662
		l-1.018,5.907l9.474,1.83c1.865-10.013,2.865-20.238,2.979-30.438l-23.457-0.125l-0.137-0.014l-0.149-0.017l-0.127-0.039
		l-0.14-0.043l-0.118-0.066l-0.124-0.067l-0.102-0.083l-0.108-0.091l-0.08-0.096l-0.099-0.115l-0.061-0.111l-0.07-0.13l-0.042-0.128
		l-0.051-0.136l-0.022-0.139l-0.038-0.129l-0.051-2.115c-0.066-10.084-1.2-20.059-3.192-30.059h-0.182h-0.082v0.254
		c0-0.371,0.219-0.758,0.429-1.073c0.207-0.316,0.777-0.536,1.146-0.61l12.144-2.479c0.662-0.135,1.313,0.216,1.58,0.813l0.025,0.08
		l0.057,0.165l0.005,0.025l0.004,0.007l0.009,0.057c0.117,0.478,0.207,0.952,0.289,1.42c0.089,0.483,0.169,0.961,0.249,1.436
		l0.341,1.958c0.092,0.581,0.194,1.151,0.295,1.718c0.156,0.875,0.309,1.779,0.439,2.687c0.026,0.159,0.051,0.316,0.073,0.476
		l0.462,3.766l0.432,3.514c0.038,0.363,0.067,0.717,0.093,1.065l9.57-0.813c-0.955-10.188-2.782-20.299-5.437-30.104l-22.59,6.312
		l-0.36,0.048l-0.025,0.005l-0.042-0.008l-0.411-0.067l-0.363-0.191l-0.061-0.041l-0.273-0.284l-0.041-0.066l-0.185-0.388
		c-2.578-9.227-6.047-18.246-10.312-26.811l-0.002-0.006c-0.354-0.707-0.067-1.564,0.639-1.917l11.104-5.531
		C334.76,109.066,335.604,109.337,335.966,110.021z M148.543,274.342c-4.943,10.784-7.413,21.907-7.416,33.369
		c0,6.04,0.71,12.031,2.084,18.262c-4.961-1.458-9.818-3.275-14.547-5.23c0.08-0.503,0.162-0.743,0.242-1.743h-0.003
		c1.731-10,4.207-19.465,7.422-26.932c3.294-7.668,7.361-13.41,12.218-17.721l-0.01,0.014L148.543,274.342z M274.066,301.603
		c-0.429-1.35-0.878-2.694-1.346-4.033c-4.859-9.66-10.977-18.508-18.354-26.544c-3.437-3.749-12.116-12.918-15.932-14.067
		c4.605,2.425,11.896,15.296,14.175,21.55c5.436,5.038,10.337,10.321,14.71,15.847c2.06,2.603,3.959,5.28,5.783,7.99
		c-0.592,0.446-1.187,0.889-1.786,1.328c-1.808-2.693-3.717-5.34-5.761-7.922c-3.638-4.598-7.644-9.022-12.031-13.274
		c0.017,0.286,0.02,0.566,0,0.815c4.634,6.793,8.361,14.529,11.248,23.144c0.162,0.484,0.324,0.966,0.48,1.454
		c-0.649,0.43-1.312,0.858-1.971,1.276c-0.155-0.501-0.5-0.993-0.5-1.489v0.002c-3-8.344-6.279-15.846-10.681-22.439
		c-0.795,0.009-1.916-0.604-3.352-1.999c-0.398-0.388-0.802-0.805-1.218-1.251c0.054,1.967,0.071,3.882,0.046,5.747
		c-0.079,5.607-0.527,10.764-1.346,15.466c-1.041,6.042-2.727,11.317-4.983,15.888l-0.022,0.01
		c-0.175,0.354-0.328,0.738-0.509,1.085c0.038,0.229,0.06,0.463,0.092,0.693c-3.271,1.359-6.601,2.603-9.987,3.726
		c0.044-0.55,0.105-1.096,0.172-1.644c0.197-1.57,0.474-3.122,0.843-4.593c1.005-4,2.142-6.42,3.304-7.281
		c-0.442-12.264-2.193-25.85-5.265-40.757c-0.359-1.773-0.748-3.565-1.151-5.38c-1.996-0.058-3.925-0.155-5.774-0.295
		c-4.818-0.351-9.137-0.955-12.963-1.818c-16.565-3.727-18.724-6.094-38.137-4.351c-25.331,4.325-40.63,23.438-45.894,57.326
		c-0.182,1.283-0.392,2.529-0.599,3.773c-7.002-3.094-13.721-6.712-20.095-10.816c-2.718-5.275,3.167-8.258,9.159-12.132
		c3.31-2.146,6.419-4.711,9.333-7.693c2.154-2.438,4.414-5.616,6.785-9.547c-7.263,9.83-12.407,12.625-21.715,19.114
		c-3.049,2.13-4.904,4.363-5.561,6.709c-0.061,0.831,0.032,1.619,0.22,2.377c-4-2.658-7.864-5.507-11.575-8.535
		c0.949-5.936,4.338-10.884,10.22-14.822c-7.508-15.146-2.565-25.492,14.828-31.047c18.889-3.596,22.304-11.473,10.236-23.637
		c-7.146,0.958-14.173-1.302-19.357-5.885c-9.074-8.011-12.063-21.184-3.962-31.027c4.573-5.555,11.279-10.055,15.137-16.045
		c6.177-9.576,3.014-18.949-0.659-32.938c-2.934-11.143-1.279-21.667,4.958-31.578c-4.767-4.127-7.027-10.454-5.942-16.667
		c0.886-5.08,3.899-9.475,8.189-12.151c0.497,2.444,1.684,8.329,5.185,8.733c6.922,0.802,7.737,3.752,8.545,6.769
		c-8.631,1.176-13.338,13.521-14.119,37.043c13.492,0.516,19.733,6.025,18.721,16.521c-1.541,5.666-3.953,11.516-7.237,17.556
		c-2.699,4.917-2.142,8.377,1.684,10.376c4.496,2.352,4.509-1.572,8.205-2.015c0.936-0.111,1.983,0.134,3.233,1.021
		c1.97,1.41,4.832,4.131,7.018,1.986c1.353-1.331,1.707-3.081,1.308-4.893c-0.303-1.365-1.047-2.546-2.234-3.542
		c-1.515-1.181-1.073-1.601,0.538-0.468c2.823,2.523,3.546,5.35,2.161,8.47c-1.203,2.724-3.663,3.469-7.39,2.225
		c-1.772-0.36-3.88,0.426-5.786,0.413c-1.248-0.007-2.263-0.91-3.574-0.767c-3.717-0.169-6.083-1.475-7.091-3.902
		c-1.817-4.38,1.355-9.79,3.3-13.469c1.862-3.896,3.039-6.814,3.533-8.771c-0.576-1.827-2.151-2.979-3.647-3.189
		c0.554,1.356,0.277,3.6-0.824,4.57c-2.095,1.843-6.181,0.885-6.442-2.766c-1.381,0.407-2.976,1.003-2.263,3.053
		c0.203,0.572,0.955,0.957,2.387,1.174c3.529,0.265,6.056-0.01,8.65-1.384c1.543-0.679,1.649-0.504,0.309,0.524
		c-4.465,2.387-8.81,2.877-13.033,1.474c-0.07,0.761-0.229,1.512-0.468,2.257c-0.786,3.456-1.375,6.747-1.763,9.882
		c-0.828,10.152,10.464,51.165,17.556,58.125c1.712,1.678,3.742,2.759,6.097,3.253c15.751,2.529,33.227,0.474,52.419-6.172
		c-6.795,4.145-17.925,7.709-33.389,10.693c2.097,2.999,3.507,6.475,4.236,10.437c20.331-8.949,41.321-14.147,62.966-15.595
		c2.46,7.664,5.926,15.248,10.391,22.743c-2.543-5.414-5.165-13.046-7.87-22.894c-3.418-11.87-5.032-24.723-4.834-38.557
		c-5.767-1.655-7.568-5.678-5.401-12.066c-0.392,8.043,8.132,5.538,12.282,2.203c5.968-4.793,8.046-13.816,6.248-27.075
		c16.063-9.771,18.947-21.823,8.651-36.161c8.873,16.574,2.05,28.57-20.474,35.982c-1.257-7.313-6.903-11.371-16.944-12.17
		c-0.668-4.545-2.845-9.952-6.534-16.226c8.091-5.4,13.326-11.514,15.709-18.348c6.817-21.909-12.499-32.228-57.95-30.954
		c-0.016-0.598-0.04-1.216-0.129-1.854c-0.257-1.91-0.707-3.998-1.707-6.262v-0.002c62-7.935,94.172,7.707,96.703,46.92
		c11.983,14.11,17.82,26.808,17.537,38.092c-0.363,14.51-10.865,26.683-31.499,36.521c16.524,4.909,24.984,11.555,25.379,19.946
		c0.134,2.797-0.632,5.789-2.29,8.973c-5.067-8.28-12.226-13.941-21.465-16.996c9.058,4.45,15.576,11.151,19.547,20.147
		c0.732,2.587,1.053,5.079,0.964,7.478c-0.37,10.393-8.447,19.02-24.227,25.877c4.924,8.451,10.614,12.081,16.493,19.498
		c5.837,7.366,10.002,14.805,13.014,22.434C275.321,300.632,274.697,301.119,274.066,301.603z M150.542,59.618
		c7.721,3.267,12.514,9.25,14.376,17.946c1.725,6.419-0.833,11.725-8.736,14.242c-4.128,0.916-6.515,3.708-7.148,8.38
		c-0.719,3.494-2.266,5.617-3.841,6.021c-0.328,1.598-0.577,3.205-0.749,4.815c-0.197,1.83-0.293,3.66-0.28,5.493
		c0.856,0.418,1.483,1.652,1.483,3.116c0,1.801-0.952,3.262-2.12,3.262c-1.171,0-2.116-1.461-2.116-3.262
		c0-1.54,0.694-2.833,1.623-3.176c-0.003-1.855,0.092-3.708,0.29-5.551c0.166-1.576,0.407-3.148,0.725-4.721
		c-1.521-0.455-2.877-2.676-3.307-7.014c-0.328-4.679-3.093-7.646-8.293-8.905c-1.808-0.389-3.135-2.002-3.979-4.841
		c-2.734-9.727-2.32-18.065,1.241-25.017c8.89,1.834,13.829,11.951,14.828,30.337C144.227,71.296,146.229,60.919,150.542,59.618z
		 M167.875,81.37c0.894-0.031,1.563-0.079,2.457-0.121c10.201-0.479,19.252-0.018,27.158,1.392
		c12.002,2.136,30.322,7.712,26.811,23.593c-1.162,5.271-5.032,10.765-11.601,16.493c-5.792,5.048-16.231,12.164-6.515,20.251
		c7.116,5.926,16.228,3.915,21.301,10.102c3.641,4.443,3.042,11.289-1.808,20.528c-2.709,3.014-6.057,5.541-10.063,7.585
		c-7.158,4.067-6.805,8.303,1.063,12.701c-6.518,5.255-12.094,8.126-16.737,8.605c-5.907,0.618-11.254-3.421-11.757-9.468
		c-0.319-3.771,2.005-7.308,6.96-10.607c5.413-3.053,8.122-4.584,8.122-4.584c8.014-5.149,7.311-12.908,1.585-14.286
		c-13.641-6.509-19.465-14.446-17.474-23.813c0.246-4.525,1.796-8.456,4.654-11.788c7.622-8.902,23.994-10.554,27.352-23.342
		c1.429-5.442-2.237-10.193-11.002-14.258c-10.246-4.322-23.94-5.993-40.646-5.08C167.916,83.971,167.958,82.883,167.875,81.37z
		 M182.769,152.141c-1.286-0.328-2.422-0.507-3.396-0.528c-0.251,2.422-2.247,4.29-4.682,4.392
		c-2.438,0.099-4.577-1.601-5.025-3.994c-0.875-0.089-2.082,0.303-3.623,1.19c-0.598,0.28-0.77,0.162-0.528-0.353
		c4.071-5.889,11.368-6.242,21.887-1.058c3.313,1.936,3.116,3.406-0.573,4.408c-6.744,1.795-12.925,1.82-18.536,0.086
		c6.623,0.648,11.422,0.458,14.386-0.573C185.121,154.426,185.153,153.235,182.769,152.141z M159.574,200.307
		c-2.613-0.658-5.945-0.942-9.994-0.859c-2.288-0.108-4.246-0.038-5.865,0.214c-2.094,0.324-2.482,0.633-4.179,1.651
		c-1.129,0.678-1.775,0.016-1.553-1.601c0.662-4.695,2.604-6.359,6.652-4.896c3.126-2.654,6.922-2.591,11.388,0.178
		c3.408,2.56,6.556,4.409,9.439,5.559c1.394,0.642,1.693,1.11,0.891,1.399c-3.357,1.219-5.754,2.155-8.195,3.791
		c-3.727,2.498-4.411,4.185-9.5,4.927c-1.327,0.193-2.469,0.14-3.43-0.159c-2.378-0.738-4.313-3.73-4.937-6.436
		c-0.42-1.837-0.334-2.855,1.722-3.459c0.98-0.29,2.27-0.329,3.857-0.109c1.356,0.175,2.648,0.175,3.883,0
		c2.715-0.703,5.935-0.569,9.666,0.395C162.104,201.194,162.152,200.994,159.574,200.307z M184.988,137.535
		c-10.672-4.522-19.179-3.72-25.502,2.403c-1.614,1.527-3.212,0.474-2.474-0.904c5.996-8.081,18.416-8.581,28.768-2.822
		C186.948,136.987,186.372,137.937,184.988,137.535z M185.812,148.172c-9.354-4.084-16.764-3.435-22.237,1.941
		C168.848,143.328,176.26,142.682,185.812,148.172z M209.309,94.54c10.745,6.614,7.922,14.377-8.472,23.285
		c-9.417-12.18-26.009-17.94-49.773-17.289c0.152-3.144,1.624-5.378,4.411-6.702c6.904-1.775,10.462-3.937,11.913-6.391
		C188.982,87.182,203.364,89.579,209.309,94.54z M237.323,163.71c-0.795,1.489-1.476,0.124-0.598-0.997
		c2.352-3.603,5.868-2.559,6.444,2.072c0.083,8.112-3.097,13.873-9.535,17.291c5.773-4.521,8.615-9.99,8.44-16.409
		C241.957,161.303,238.987,160.58,237.323,163.71z M329.837,185.293l-0.02,0.8c-0.073,18.944-3.946,38.089-11.206,55.366
		c-7.221,17.261-18.147,33.451-31.601,46.823c-2.992,2.983-6.142,5.817-9.395,8.535c-3.017-7.05-7.027-13.937-12.428-20.754
		c-4.714-5.944-10.296-10.442-14.577-16.598c9.729-4.653,19.856-11.772,22.365-22.695c0.862-3.74,0.725-7.515-0.131-11.206
		l1.324-2.54c2.085-3.997,3.25-8.484,2.272-12.982c-1.955-9.051-11.674-14.5-20.521-17.828
		c11.765-6.534,23.052-15.917,26.151-29.354c3.864-16.747-6.451-33.472-16.798-45.826c-0.821-10.605-3.87-20.796-10.579-29.236
		c-8.46-10.649-20.904-16.213-33.95-18.97c-17.68-3.74-37.559-2.711-55.375-0.433l-0.713,0.091
		c-2.797-5.103-7.087-9.02-12.991-11.52l-0.958-0.406l-1,0.299c-4.395,1.329-5.971,7.014-6.734,10.975
		c-0.038,0.219-0.08,0.438-0.124,0.66c-2.534-5.372-6.455-9.642-12.556-10.902l-2.145-0.444l-1.002,1.951
		c-3.476,6.787-3.969,14.201-2.734,21.487l-0.379,0.235c-5.025,3.135-8.482,8.263-9.5,14.099
		c-1.117,6.385,0.827,12.909,5.143,17.636c-5.62,9.927-7.069,20.602-4.111,31.836c1.804,6.875,4.974,16.56,3.79,23.647
		c-0.426,2.546-1.366,4.837-2.762,7.005c-3.771,5.85-10.426,10.29-14.943,15.77c-9.083,11.041-5.977,25.958,4.281,35.016
		c5.497,4.857,12.864,7.305,20.166,6.738c2.463,2.625,6.037,7.081,5.127,10.359c-1.26,4.558-10.996,6.712-14.806,7.438l-0.168,0.035
		l-0.169,0.055c-17.228,5.496-24.653,16.415-17.562,32.842c-4.52,3.514-7.298,7.584-8.689,12.017
		c-2.825-2.434-5.588-4.945-8.21-7.585c-13.38-13.412-24.22-29.659-31.353-46.988c-7.148-17.294-10.922-36.457-10.914-55.423
		l0.016-0.781c0.073-18.947,3.95-38.078,11.209-55.351c7.218-17.263,18.144-33.427,31.601-46.796
		C95.589,69.006,111.837,58.08,129.17,50.95C146.445,43.808,165.585,40,184.51,40h0.057h0.792h0.013h0.01
		c18.943,0,38.087,3.992,55.362,11.251c17.263,7.218,33.453,18.115,46.823,31.569c13.38,13.414,24.224,29.697,31.353,47.025
		C326.068,147.136,329.839,166.331,329.837,185.293z"/>
	<path fill="#FFFFFF" d="M315.794,55.005c-17.012-17.119-37.613-31.289-59.572-40.472C234.243,5.296,209.888,0,185.785,0h-0.012
		c-0.007,0-0.016,0-0.016,0h-1.004c-0.024,0-0.049,0-0.075,0c-24.074,0-48.429,5.061-70.408,14.148
		C92.221,23.218,71.55,37.14,54.484,54.165c-17.118,17.011-31.018,37.674-40.201,59.637c-9.236,21.977-14.167,46.364-14.262,70.469
		L0,185.289c-0.01,24.133,4.792,48.524,13.888,70.524c9.071,22.048,22.865,42.722,39.887,59.788
		c17.01,17.117,37.61,30.986,59.571,40.167C135.325,365.004,159.681,370,183.782,370c0.01,0,0.02,0,0.026,0h1.006
		c0.025,0,0.051,0,0.076,0c24.076,0,48.429-4.757,70.408-13.844c22.049-9.07,42.719-22.84,59.785-39.866
		c17.115-17.011,31.018-37.599,40.203-59.559c9.236-21.98,14.164-46.33,14.26-70.434l0.022-1.016
		c0.006-24.124-4.796-48.498-13.89-70.494C346.609,92.74,332.816,72.068,315.794,55.005z M335.002,141.536l22.604-6.315l0.283-0.054
		c0.283-0.019,0.56,0.046,0.801,0.181l0.138,0.091l0.086,0.051l0.303,0.352l0.044,0.023l0.029-0.021l0.089,0.046
		c3.04,10.862,5.089,21.11,6.057,33.11h0.349v0.648l-0.195,0.28l-0.206,0.2l-0.031,0.069l-0.096,0.213l-0.023,0.044
		c-0.092,0.164-0.215,0.309-0.361,0.425l-0.046,0.032l-0.188,0.12l-0.078,0.03l-0.185,0.075l-0.276,0.051l-12.438,1.059
		l-0.125,0.005l-0.092-0.008l-0.108-0.01l-0.159-0.034l-0.099-0.028l-0.162-0.068l-0.083-0.04l-0.188-0.131l-0.031-0.018
		c-0.29-0.246-0.468-0.598-0.5-0.978c-0.026-0.297-0.045-0.593-0.063-0.892c-0.036-0.503-0.071-1.006-0.125-1.505l-0.43-3.501
		l-0.463-3.753l-0.046-0.321c-0.127-0.888-0.283-1.802-0.442-2.688c-0.102-0.581-0.207-1.163-0.299-1.746
		c-0.105-0.549-0.199-1.13-0.298-1.712c-0.086-0.534-0.173-1.054-0.265-1.566l-0.01-0.069l-9.567,1.907
		c1.846,9.515,2.679,19.292,2.679,29.085V185h5.542l0.264-0.104l17.976-0.122c0.789,0.006,1.518,0.685,1.518,1.473
		c-0.035,11.325-0.3,22.735-3.3,33.834v0.003l-0.01,0.008l0.016,0.253l-0.089,0.083l-0.106,0.156l-0.069,0.077l-0.111,0.129
		l-0.073,0.067l-0.131,0.108l-0.078,0.049l-0.153,0.081l-0.08,0.037l-0.175,0.048l-0.076,0.012l-0.214-0.076L361.38,221h-0.01
		l-0.27,0.094l-12.26-2.285c-0.668-0.131-1.14-0.687-1.155-1.342l0.019-0.274l1.249-7.214l0.884-7.197
		c0.058-0.397,0.099-0.797,0.133-1.192c0.025-0.3,0.048-0.6,0.071-0.908l0.018-0.252l0.073-1.022l-9.528-0.713
		c-0.742,8.82-2.225,17.579-4.42,26.086l22.667,6.079c0.188,0.051,0.359,0.13,0.506,0.245c0.366,0.286,0.576,0.443,0.547,0.917
		L359.858,232h-0.003c-2.931,12-6.926,21.976-11.865,32.165l-0.15,0.409l-0.05,0.128l-0.141,0.185l-0.077,0.071l-0.149,0.118
		l-0.032,0.016l-0.216,0.105l-0.258,0.062l-0.061,0.006l-0.149,0.013l-0.039-0.007l-0.201-0.021l-0.095-0.013l-0.29-0.105
		l-11.231-5.448c-0.351-0.169-0.615-0.475-0.735-0.843c-0.061-0.186-0.083-0.38-0.064-0.567c0.017-0.191,0.07-0.376,0.159-0.547
		c0.353-0.662,0.675-1.347,0.987-2.044c0.179-0.392,0.353-0.782,0.532-1.19c0.166-0.369,0.328-0.738,0.493-1.106l1.977-4.456
		l1.607-4.173l0.124-0.321l0.039-0.103c0.14-0.369,0.283-0.741,0.429-1.113c0.22-0.561,0.424-1.102,0.624-1.643l0.121-0.318
		l-9.045-3.135c-2.966,8.288-6.658,16.359-10.996,24.029l20.321,11.731l0.233,0.165l0.118,0.128l0.069,0.075l0.096,0.153
		l-0.12,0.086c0.079,0.165-0.036,0.347-0.036,0.535v0.082l0.05,0.194l-0.05,0.083v0.191l0.102,0.085l-0.005,0.172l0.032,0.004
		c-5.64,9.765-12.242,19.08-19.658,27.686l-0.211,0.21l-0.081,0.051l-0.167,0.1l-0.103,0.041l-0.168,0.054l-0.11,0.02l-0.176,0.019
		l-0.048,0.004l-0.089-0.007l-0.117-0.009l-0.144-0.032l-0.111-0.029l-0.156-0.066l-0.089-0.045l-0.222-0.156l-9.462-8.147
		c-0.286-0.248-0.464-0.599-0.493-0.977c-0.026-0.379,0.099-0.751,0.344-1.038l1.734-2.008c0.197-0.226,0.385-0.442,0.57-0.662
		l0.14-0.165c0.226-0.268,0.442-0.538,0.649-0.815l1.766-2.257l2.767-3.542l3.335-4.732l-7.886-5.34
		c-5.01,7.281-10.663,14.152-16.827,20.464l16.674,16.509l0.182,0.22l0.086,0.159l0.044,0.086l0.058,0.185l0.025,0.082l0.028,0.277
		l-0.003,0.021l-0.022,0.255l-0.025,0.08l-0.054,0.188l-0.054,0.104l-0.077,0.145l-0.178,0.227
		c-8.018,8.074-16.773,15.415-26.024,21.809l-0.003,0.015l-0.347,0.191l-0.089-0.042L286.752,335h-0.009l-0.047,0.04l-0.252-0.04
		h-0.102l-0.194-0.083l-0.101-0.056l-0.179-0.123l-0.083-0.065l-0.216-0.245l-7.1-10.268c-0.449-0.643-0.29-1.528,0.35-1.979
		l3.991-2.813c0.821-0.583,1.646-1.235,2.441-1.862l0.217-0.172c0.389-0.306,0.776-0.611,1.168-0.913
		c0.43-0.341,0.884-0.694,1.343-1.047l0.023-0.02c0.801-0.617,1.632-1.26,2.399-1.919l1.782-1.537l0.815-0.707l-6.295-7.167
		c-6.703,5.793-13.892,11.019-21.406,15.563l11.941,20.203c0.401,0.678,0.175,1.553-0.503,1.954l-0.003,0.003
		c-9.803,5.803-20.152,10.672-30.764,14.472l-0.26,0.063l-0.089,0.01l-0.13,0.01l-0.029-0.004l-0.372-0.057l-0.073-0.025
		l-0.303-0.149l-0.048-0.029l-0.273-0.261l-0.054-0.07l-0.194-0.35l-4.211-11.754c-0.067-0.181-0.092-0.369-0.083-0.554
		c0.028-0.547,0.369-1.05,0.913-1.26l5.5-2.12c0.605-0.235,1.196-0.462,1.776-0.693l0.028-0.014c0.57-0.229,1.127-0.468,1.677-0.726
		c0.72-0.324,1.423-0.633,2.123-0.941c1.798-0.793,3.647-1.607,5.433-2.498l-4.271-8.567c-7.912,3.852-16.193,7.038-24.659,9.488
		l6.315,22.604l0.048,0.289c0.048,0.662-0.376,1.297-1.041,1.481c-10.859,3.036-22.107,4.993-33.431,5.963L200.137,366h-0.019
		l-0.238,0.037l-0.109-0.021l-0.136-0.015l-0.112-0.039l-0.12-0.055l-0.099-0.067l-0.086-0.059l-0.019-0.017l-0.122-0.128
		l-0.063-0.069l-0.111-0.168l-0.035-0.058l-0.089-0.222l-0.013-0.032l-0.05-0.273l-1.06-12.441
		c-0.032-0.379,0.089-0.754,0.334-1.044c0.246-0.289,0.599-0.468,0.977-0.5c0.296-0.025,0.592-0.044,0.892-0.066
		c0.503-0.035,1.005-0.067,1.505-0.121l2.308-0.283l4.943-0.608c0.994-0.13,2.021-0.312,3.017-0.489
		c0.27-0.048,0.538-0.093,0.809-0.141c0.312-0.054,0.621-0.111,0.933-0.162c0.547-0.102,1.129-0.199,1.709-0.297
		c0.264-0.042,0.513-0.089,0.77-0.133l0.389-0.068l0.401-0.075l0.079-0.022l-1.909-9.379c-9.513,1.846-19.29,2.775-29.083,2.839
		l-0.553-0.073l-0.125,23.228c-0.002,0.786-0.643,1.025-1.429,1.025h-0.003c-11.324,0-22.695-0.751-33.793-2.91l-0.003,0.348
		c-0.292-0.054-0.544-0.171-0.738-0.368l-0.029-0.02l-0.146-0.172l-0.045-0.077l-0.086-0.162l-0.063-0.199l-0.022-0.06
		c-0.038-0.182-0.041-0.373-0.003-0.567l2.368-12.259c0.127-0.668,0.701-1.136,1.359-1.154l0.287,0.019l7.218,1.248l7.2,0.885
		c0.156,0.021,0.312,0.034,0.47,0.054c0.245,0.028,0.494,0.061,0.736,0.083c0.397,0.031,0.783,0.061,1.145,0.083l1.022,0.076
		l0.716-9.529c-8.826-0.742-17.588-2.228-26.088-4.421l-6.083,22.664l-0.181,0.397l-0.035,0.058l-0.283,0.296l-0.052,0.035
		c-0.226,0.165-0.496,0.258-0.786,0.268l-0.041,0.006l-0.033-0.003l-0.34-0.048c-10.948-2.931-21.664-6.923-31.855-11.865
		l-0.241-0.149l-0.115-0.104l-0.089-0.083l-0.114-0.156l-0.052-0.069l-0.098-0.217l-0.016-0.038l-0.01-0.028l-0.057-0.239
		l-0.004-0.111l-0.006-0.169l0.019-0.137l0.022-0.137l0.099-0.268l5.452-11.231c0.169-0.35,0.475-0.614,0.844-0.735l0.354-0.063
		c0.22-0.013,0.442,0.025,0.648,0.114l0.111,0.045c0.325,0.175,0.659,0.328,0.99,0.49c0.197,0.096,0.391,0.197,0.592,0.293
		l0.395,0.175c0.417,0.188,0.833,0.376,1.267,0.566c0.238,0.105,0.48,0.213,0.719,0.318l0.381,0.169l2.648,1.175l1.805,0.801
		l3.819,1.471l0.674,0.262c0.398,0.149,0.803,0.305,1.204,0.464c0.675,0.262,1.324,0.516,1.97,0.748l3.138-9.045
		c-8.291-2.966-16.358-6.661-24.029-10.996L96.02,342.14l-0.168,0.231l-0.115,0.105l-0.089,0.083l-0.149,0.095l-0.086,0.051
		c-0.185,0.093-0.388,0.137-0.592,0.144l-0.038,0.003l-0.058-0.007l-0.251-0.031l-0.089-0.022l-0.318-0.131l-0.003-0.003
		c-9.765-5.64-19.077-12.256-27.686-19.672c-0.449-0.385-0.598-0.99-0.426-1.518c0.058-0.178,0.149-0.348,0.277-0.497l8.147-9.459
		c0.249-0.286,0.599-0.464,0.977-0.493c0.385-0.028,0.751,0.096,1.038,0.344l2.037,1.76l0.414,0.357l0.398,0.34
		c0.264,0.22,0.528,0.436,0.802,0.64l3.724,2.909l2.069,1.617l3.291,2.316l1.447,1.021l5.337-7.888
		c-7.278-5.014-14.153-10.663-20.461-16.829l-16.508,16.673l-0.224,0.176l-0.076,0.031l-0.169,0.068l-0.083-0.017l-0.185-0.026
		l-0.039-0.183L57.929,314h-0.006l-0.137,0.338l-0.137,0.331l-0.112-0.027l-0.156-0.045l-0.102-0.052l-0.143-0.076l-0.22-0.178
		c-8.074-8.014-15.41-16.769-21.807-26.021c-0.446-0.649-0.283-1.538,0.362-1.986l10.268-7.104c0.646-0.446,1.53-0.29,1.982,0.354
		l2.813,3.99c0.583,0.818,1.232,1.643,1.859,2.438c0.366,0.458,0.729,0.92,1.085,1.384c0.249,0.315,0.506,0.644,0.764,0.975
		l0.312,0.404c0.309,0.397,0.621,0.805,0.939,1.206l0.219,0.264c0.248,0.313,0.496,0.62,0.754,0.92l2.244,2.598l7.164-6.299
		c-5.79-6.699-11.015-13.889-15.56-21.406l-20.204,11.944l-0.319,0.133l-0.097,0.023l-0.248,0.034l-0.058,0.006l-0.033-0.002
		c-0.22-0.007-0.43-0.063-0.625-0.166l-0.065-0.044l-0.181-0.153l0.198-0.061l0.1-0.273v-0.003
		c-7-9.803-10.986-20.156-14.787-30.764c-0.232-0.649-0.169-1.356,0.397-1.703l0.207-0.124l11.727-4.211
		c0.729-0.265,1.521,0.105,1.8,0.831l2.112,5.496c0.233,0.608,0.456,1.2,0.69,1.776c0.077,0.194,0.165,0.378,0.244,0.57
		c0.163,0.381,0.318,0.763,0.493,1.139c0.324,0.723,0.632,1.426,0.944,2.129c0.229,0.522,0.467,1.054,0.703,1.585
		c0.573,1.286,1.158,2.578,1.791,3.839l8.568-4.269c-3.854-7.915-7.04-16.199-9.488-24.66l-22.601,6.313l-0.347,0.05l-0.037,0.003
		l-0.047-0.006c-0.28-0.01-0.544-0.103-0.77-0.26l-0.051-0.038l-0.271-0.288l-0.025-0.061l-0.215-0.392
		c-3.035-10.859-4.038-22.106-6.038-33.431v-0.004l0.004-0.28l0.008-0.158l0.041-0.115l0.081-0.176l0.04-0.078l0.145-0.21
		l0.017-0.021l0.013-0.011l0.188-0.185l0.058-0.037l0.175-0.115l0.083-0.032l0.175-0.07l0.28-0.053l12.438-1.059
		c0.375-0.035,0.754,0.088,1.047,0.335c0.29,0.244,0.468,0.595,0.5,0.974c0.023,0.297,0.045,0.595,0.064,0.892
		c0.035,0.502,0.07,1.007,0.124,1.508l0.892,7.247c0.048,0.364,0.109,0.737,0.167,1.107c0.052,0.325,0.107,0.646,0.161,0.971
		c0.058,0.318,0.112,0.641,0.169,0.955c0.103,0.574,0.21,1.148,0.304,1.725c0.102,0.548,0.209,1.127,0.305,1.706
		c0.086,0.516,0.193,1.016,0.282,1.509l0.067,0.134l9.663-1.906c-1.847-9.52-2.488-19.297-2.488-29.085v-0.553l-23.675-0.124
		c-0.789-0.003-1.711-0.645-1.708-1.432c0.035-11.327,0.382-22.695,3.382-33.794v-0.005c0-0.774,0.715-1.28,1.488-1.131
		l11.978,2.368c0.764,0.146,1.318,0.878,1.188,1.646l-1.224,7.216l-0.685,5.651l-0.184,1.557c-0.115,0.798-0.167,1.624-0.217,2.353
		l-0.072,1.015l9.529,0.714c0.741-8.822,2.229-17.586,4.421-26.087l-22.666-6.082c-0.665-0.178-1.095-0.802-1.054-1.464L9.33,138
		c2.935-10.948,6.925-21.664,11.865-31.855l0.152-0.243l0.115-0.126l0.073-0.078l0.169-0.122l0.057-0.041l0.245-0.111l0.007-0.006
		l0.271-0.064l0.118-0.005l0.162-0.007l0.125,0.02l0.149,0.023l0.268,0.099l11.231,5.452c0.351,0.168,0.615,0.475,0.736,0.842
		c0.06,0.185,0.083,0.377,0.063,0.568c-0.016,0.188-0.07,0.375-0.162,0.545c-0.274,0.52-0.532,1.046-0.78,1.584
		c-0.249,0.536-0.487,1.084-0.736,1.648c-0.165,0.371-0.327,0.742-0.493,1.112l-1.979,4.458l-0.197,0.512l-1.528,3.972
		c-0.153,0.402-0.312,0.811-0.471,1.22c-0.166,0.421-0.315,0.828-0.467,1.234c-0.093,0.242-0.193,0.487-0.279,0.726l9.044,3.138
		c2.967-8.29,6.658-16.358,10.995-24.028L27.757,96.732l-0.235-0.166l-0.146-0.145l-0.073-0.062l-0.16-0.185l-0.081-0.05
		c-0.083-0.169-0.278-0.351-0.278-0.537v-0.062l0.107-0.217l0.134-0.069l-0.023-0.204l-0.058-0.099l-0.16-0.159v-0.003
		c6-9.761,12.488-19.077,19.904-27.686c0.448-0.522,1.441-0.64,2.021-0.316l0.227,0.165l9.458,8.147
		c0.286,0.247,0.462,0.6,0.488,0.977c0.028,0.377-0.096,0.753-0.342,1.039l-1.763,2.039c-0.322,0.372-0.628,0.733-0.924,1.095
		c-0.137,0.17-0.277,0.339-0.407,0.514l-3.123,3.994l-1.41,1.806l-3.335,4.735l7.886,5.337c5.01-7.282,10.662-14.153,16.827-20.463
		L55.619,59.651l-0.179-0.219l-0.091-0.169l-0.042-0.077l-0.061-0.193l-0.022-0.073l-0.029-0.276l0.003-0.021l0.023-0.256
		l0.028-0.09l0.051-0.177l0.067-0.124l0.064-0.123l0.178-0.223c8.011-8.072,16.767-15.408,26.021-21.805v-0.001l0.21-0.114
		c0.516-0.242,1.124-0.151,1.543,0.221l0.048,0.037l0.188,0.22l7.1,10.267c0.168,0.242,0.251,0.518,0.254,0.791
		c0.007,0.456-0.203,0.907-0.604,1.189l-3.995,2.814c-0.722,0.516-1.447,1.082-2.154,1.641l-0.278,0.218
		c-0.462,0.364-0.923,0.728-1.388,1.085c-0.436,0.35-0.902,0.708-1.367,1.066c-0.76,0.586-1.543,1.193-2.275,1.815l-0.132,0.104
		l-2.61,2.244l6.275,7.167c6.703-5.79,13.854-11.02,21.368-15.565L91.732,30.82c-0.35-0.593,0.052-1.343,0.052-1.789v-0.013
		l0.333-0.109l0.309-0.238C102.229,22.869,112.607,17,123.218,14h0.003l0.102,0.174c0.713-0.199,1.471,0.326,1.725,1.034
		l4.211,11.778c0.26,0.729-0.105,1.548-0.832,1.828l-5.495,2.125c-0.607,0.233-1.2,0.462-1.778,0.697
		c-0.58,0.234-1.147,0.478-1.711,0.742c-0.722,0.325-1.425,0.636-2.129,0.945c-0.251,0.111-0.509,0.227-0.764,0.338
		c-1.556,0.688-3.138,1.392-4.672,2.157l4.258,8.569c7.916-3.852,16.174-7.037,24.637-9.487l-6.604-22.602l-0.386-0.285v-0.005
		c0-0.661,0.713-1.284,1.378-1.469c10.859-3.037,22.324-5.068,33.647-6.036c0.596-0.055,1.194,0.267,1.449,0.766l0.04,0.019
		l0.11,0.238l0.058,0.279l1.064,12.439c0.031,0.379-0.088,0.755-0.333,1.045c-0.249,0.289-0.597,0.47-0.976,0.5
		c-0.293,0.023-0.588,0.043-0.881,0.064c-0.505,0.035-1.012,0.069-1.514,0.122l-2.307,0.284l-4.945,0.607
		c-0.497,0.064-1.002,0.143-1.509,0.228c-0.506,0.084-1.01,0.175-1.507,0.264c-0.583,0.104-1.165,0.206-1.744,0.301
		c-0.551,0.102-1.136,0.2-1.717,0.297l-0.406,0.07l-0.779,0.137c-0.162,0.026-0.363,0.064-0.522,0.092l1.648,9.382
		c9.516-1.848,19.745-2.777,28.745-2.842V29h1.23l0.124-23.526C184.144,4.688,184.78,4,185.57,4h0.003c11.33,0,22.698,0,33.793,3
		h0.003c0.194,0,0.372,0.178,0.525,0.281l0.007-0.102l0.207,0.257l0.028,0.076l0.146,0.2l0.042,0.089l0.089,0.168l0.063,0.209
		l0.02,0.066c0.038,0.182,0.041,0.384,0.006,0.577l-2.368,12.28c-0.146,0.765-0.881,1.308-1.646,1.179l-7.218-1.166l-3.981-0.686
		L202.065,20h-0.006c-0.397,0-0.799-0.067-1.19-0.102l-0.347-0.176c-0.274-0.021-0.551,0.049-0.806,0.031l-0.712-0.007l-0.305,0.002
		l-0.717,9.54c8.823,0.741,17.584,2.232,26.088,4.426l6.083-22.662c0.051-0.19,0.137-0.361,0.251-0.507
		c0.341-0.438,0.923-0.652,1.499-0.501c10.946,2.932,21.665,6.926,31.855,11.867L264,22.06l0.13,0.121l0.073,0.069l0.115,0.155
		l0.051,0.069l0.092,0.205l0.022,0.048l0.01,0.044l0.057,0.226l0.003,0.117l0.006,0.161l-0.019,0.14l-0.022,0.137l-0.099,0.269
		l-5.452,11.23c-0.172,0.349-0.475,0.614-0.844,0.734c-0.369,0.12-0.77,0.085-1.114-0.098c-1.037-0.553-2.106-1.023-3.239-1.521
		c-0.37-0.162-0.739-0.324-1.105-0.489l-4.456-1.977l-2.126-0.819l-2.364-0.911c-0.398-0.15-0.798-0.308-1.203-0.464
		c-0.672-0.262-1.324-0.516-1.971-0.748l-3.138,9.043c8.288,2.967,16.358,6.66,24.029,10.999l11.731-20.323l0.165-0.23l0.153-0.142
		l0.051-0.048l0.213-0.131l0.022-0.399c0.169-0.083,0.35-0.527,0.538-0.527h0.089l0.188,0.391l0.127,0.22l0.146,0.13l0.258,0.165
		c9.768,5.643,19.083,12.286,27.692,19.699c0.522,0.45,0.64,1.209,0.315,1.79l-0.166,0.244l-8.147,9.462
		c-0.248,0.288-0.598,0.466-0.977,0.495l-0.105,0.004l-0.115-0.01l-0.085-0.007l-0.198-0.044l-0.063-0.018l-0.197-0.086
		l-0.051-0.024l-0.222-0.157l-2.044-1.766c-0.273-0.236-0.538-0.467-0.802-0.688l-0.197-0.155c-0.201-0.166-0.401-0.331-0.608-0.485
		l-5.798-4.529l-4.733-3.337l-5.34,7.888c7.282,5.011,14.156,10.662,20.464,16.827l16.505-16.674l0.221-0.18l0.204-0.111l0.04-0.021
		l0.229-0.071l0.025-0.011l0.281-0.028c0.26-0.005,0.496,0.075,0.719,0.214l-0.013,0.021l0.038,0.153l-0.208,0.031v0.007
		c8,8.014,15.653,16.78,22.046,26.034c0.449,0.646,0.507,1.562-0.139,2.01l-10.258,7.146l-0.344,0.265l-0.08-0.002L322.644,92
		h-0.007l-0.045-0.162l-0.254-0.291l-0.099,0.024l-0.197-0.044l-0.096-0.036l-0.185-0.115l-0.076-0.057l-0.22-0.239l-2.813-3.989
		c-0.532-0.751-1.12-1.499-1.696-2.23l-0.163-0.207c-0.366-0.462-0.729-0.923-1.088-1.391c-0.115-0.144-0.232-0.297-0.35-0.447
		c-0.236-0.301-0.474-0.604-0.71-0.912c-0.601-0.776-1.219-1.577-1.855-2.323l-0.062-0.078l-2.24-2.602l-7.153,6.299
		c5.79,6.702,11.038,13.892,15.582,21.406l20.034-11.941c0.679-0.404,1.833-0.179,1.833,0.503v0.003c7,9.801,12,20.151,15,30.761
		v0.003c0,0.648-0.176,1.355-0.742,1.701l-0.424,0.124l-11.741,4.213l-0.255,0.063l-0.073,0.008l-0.151,0.011l-0.019-0.003
		l-0.359-0.054l-0.08-0.029l-0.296-0.14l-0.048-0.028l-0.273-0.25l-0.051-0.068l-0.197-0.341l-2.12-5.496
		c-0.124-0.323-0.245-0.631-0.369-0.945c-0.239-0.614-0.491-1.22-0.749-1.81c-0.104-0.244-0.203-0.492-0.315-0.73
		c-0.216-0.48-0.42-0.945-0.626-1.413c-0.105-0.237-0.213-0.478-0.315-0.713c-0.792-1.798-1.607-3.646-2.499-5.43l-8.567,4.268
		C329.365,124.788,332.551,133.07,335.002,141.536z"/>
	<path fill="#1E3A2B" d="M336.581,118.035c0.102,0.235,0.21,0.476,0.315,0.713c0.207,0.468,0.411,0.933,0.626,1.413
		c0.112,0.238,0.21,0.486,0.315,0.73c0.258,0.59,0.51,1.195,0.749,1.81c0.124,0.314,0.245,0.622,0.369,0.945l2.12,5.496l0.197,0.341
		l0.051,0.068l0.273,0.25l0.048,0.028l0.296,0.14l0.08,0.029l0.359,0.054l0.02,0.003l0.152-0.011l0.076-0.008l0.261-0.063
		l11.753-4.213l0.399-0.124c0.566-0.346,0.742-1.053,0.742-1.701v-0.003c-3-10.609-8-20.96-15-30.761v-0.003
		c0-0.682-1.154-0.907-1.833-0.503l-20.143,11.941c-4.544-7.515-9.738-14.704-15.528-21.406l7.18-6.299l2.254,2.602l0.069,0.078
		c0.636,0.746,1.258,1.547,1.859,2.323c0.236,0.309,0.476,0.611,0.712,0.912c0.117,0.15,0.236,0.304,0.351,0.447
		c0.359,0.468,0.723,0.929,1.089,1.391l0.163,0.207c0.576,0.731,1.164,1.479,1.696,2.23l2.813,3.99l0.22,0.24l0.076,0.061
		l0.185,0.121l0.096,0.049l0.197,0.071l0.099,0.029l0.254,0.184L322.637,92h0.007l0.369-0.211l0.083-0.104l0.35-0.211l10.271-7.12
		c0.646-0.449,0.563-1.352,0.114-1.997c-6.394-9.254-14.046-18.007-22.046-26.021v-0.007l0.208-0.031l-0.064-0.153l0.026-0.021
		c-0.223-0.139-0.452-0.219-0.712-0.214l-0.277,0.028l-0.024,0.011l-0.229,0.071l-0.039,0.021l-0.204,0.111l-0.221,0.18
		l-16.505,16.674c-6.308-6.165-13.183-11.816-20.464-16.827l5.34-7.888l4.733,3.337l5.798,4.529
		c0.208,0.154,0.408,0.319,0.608,0.485l0.197,0.155c0.264,0.222,0.528,0.452,0.802,0.688l2.044,1.766l0.222,0.157l0.051,0.024
		l0.197,0.086l0.063,0.018l0.198,0.044l0.085,0.007l0.115,0.012l0.105-0.004c0.379-0.028,0.729-0.205,0.977-0.493l8.147-9.46
		l0.166-0.237c0.324-0.58,0.207-1.327-0.315-1.777c-8.609-7.413-17.925-14.033-27.692-19.676l-0.258-0.116l-0.146-0.034
		l-0.127-0.412L274.401,27h-0.089c-0.188,0-0.369,0.444-0.538,0.527l-0.022,0.207l-0.213,0.228l-0.051,0.096l-0.153,0.165
		l-0.165,0.243l-11.731,20.329c-7.671-4.339-15.742-8.029-24.029-10.996l3.138-9.042c0.646,0.232,1.299,0.486,1.971,0.748
		c0.404,0.157,0.805,0.315,1.203,0.465l2.364,0.911l2.126,0.819l4.456,1.977c0.366,0.165,0.735,0.327,1.105,0.489
		c1.133,0.498,2.202,0.969,3.239,1.521c0.344,0.183,0.745,0.218,1.114,0.098c0.369-0.12,0.672-0.386,0.844-0.734l5.452-11.23
		l0.099-0.269l0.022-0.137l0.019-0.14l-0.006-0.161l-0.003-0.117l-0.057-0.226l-0.01-0.044l-0.022-0.048l-0.092-0.205l-0.051-0.069
		l-0.115-0.155l-0.073-0.069L264,22.06l-0.242-0.149c-10.191-4.94-20.91-8.935-31.855-11.866c-0.576-0.151-1.158,0.064-1.499,0.502
		c-0.114,0.146-0.2,0.317-0.251,0.508L224.07,33.72c-8.504-2.194-17.266-3.68-26.088-4.421l0.717-9.529l0.305,0.021l0.712,0.053
		c0.255,0.018,0.532,0.038,0.806,0.06l0.347-0.005c0.392,0.035,0.793,0.102,1.19,0.102h0.006l3.224,0.428l3.981,0.504l7.218,1.257
		c0.765,0.129,1.5-0.369,1.646-1.133L220.502,8.8c0.035-0.193,0.032-0.384-0.006-0.566l-0.02-0.059l-0.063-0.203l-0.089-0.163
		l-0.042-0.078l-0.146-0.177l-0.028-0.033l-0.207-0.17l-0.007-0.071C219.742,7.178,219.564,7,219.37,7h-0.003
		c-11.095-3-22.463-3-33.793-3h-0.003c-0.79,0-1.426,0.688-1.433,1.474L184.014,29h-1.23v-0.205c-9,0.064-19.229,0.994-28.745,2.842
		l-1.741-9.382c0.159-0.027,0.406-0.065,0.568-0.092l0.803-0.137l0.417-0.07c0.581-0.097,1.172-0.195,1.723-0.297
		c0.579-0.095,1.165-0.197,1.747-0.301c0.497-0.089,1.002-0.18,1.508-0.264c0.507-0.085,1.013-0.163,1.509-0.228l4.945-0.607
		l2.308-0.284c0.502-0.053,1.009-0.087,1.515-0.122c0.293-0.021,0.589-0.041,0.882-0.064c0.379-0.03,0.729-0.211,0.977-0.5
		c0.245-0.29,0.366-0.666,0.334-1.045l-1.061-12.439l-0.05-0.279l-0.095-0.238l-0.01-0.019c-0.255-0.499-0.793-0.82-1.388-0.766
		c-11.324,0.968-22.91,2.999-33.769,6.036c-0.666,0.185-1.378,0.808-1.378,1.469v0.005l0.386,0.285l6.483,22.602
		c-8.463,2.45-16.661,5.636-24.577,9.487l-4.228-8.568c1.534-0.766,3.131-1.47,4.687-2.157c0.254-0.111,0.52-0.228,0.771-0.338
		c0.703-0.31,1.41-0.619,2.132-0.944c0.564-0.264,1.134-0.506,1.713-0.74c0.579-0.234,1.172-0.46,1.779-0.693l5.495-2.118
		c0.727-0.279,1.093-1.085,0.832-1.815l-4.211-11.752c-0.254-0.708-1.012-1.285-1.725-1.085L123.222,14h-0.003
		c-10.611,3-20.96,8.869-30.763,14.671l-0.338,0.186l-0.333,0.161v0.013c0,0.446-0.401,1.196-0.052,1.789l12.052,20.204
		C96.27,55.57,89.134,60.8,82.431,66.59l-6.268-7.167l2.614-2.244l0.134-0.104c0.732-0.622,1.516-1.229,2.276-1.815
		c0.465-0.358,0.932-0.717,1.368-1.066c0.465-0.357,0.926-0.721,1.388-1.085l0.278-0.218c0.707-0.559,1.432-1.125,2.154-1.641
		l3.995-2.814c0.401-0.282,0.611-0.733,0.604-1.189c-0.003-0.273-0.086-0.549-0.254-0.791l-7.1-10.267l-0.188-0.22l-0.048-0.037
		c-0.42-0.372-1.028-0.463-1.543-0.221l-0.21,0.114v0.001c-9.254,6.396-18.01,13.732-26.021,21.805l-0.178,0.223l-0.064,0.123
		L55.301,58.1l-0.051,0.177l-0.028,0.09l-0.023,0.256l-0.003,0.021l0.029,0.276l0.022,0.073l0.061,0.193l0.042,0.077l0.091,0.169
		l0.179,0.219l16.674,16.508c-6.165,6.31-11.817,13.181-16.827,20.463l-7.886-5.337l3.335-4.735l1.41-1.806l3.123-3.994
		c0.129-0.175,0.27-0.344,0.407-0.514c0.296-0.361,0.601-0.723,0.923-1.095l1.763-2.039c0.246-0.286,0.369-0.662,0.341-1.039
		c-0.025-0.377-0.204-0.729-0.49-0.977l-9.462-8.147l-0.235-0.165c-0.58-0.323-1.558-0.206-2.006,0.316
		c-7.416,8.608-13.904,17.925-19.904,27.686v0.003l0.156,0.159l0.07,0.099l0.008,0.204l-0.122,0.069l-0.112,0.217v0.062
		c0,0.187,0.195,0.368,0.278,0.537l0.097,0.05l0.152,0.185l0.069,0.062l0.144,0.145l0.234,0.166l20.324,11.732
		c-4.337,7.67-8.028,15.738-10.996,24.028l-9.044-3.138c0.086-0.238,0.187-0.483,0.279-0.726c0.152-0.406,0.301-0.813,0.467-1.234
		c0.159-0.409,0.318-0.817,0.471-1.22l1.528-3.972l0.197-0.512l1.979-4.458c0.166-0.37,0.328-0.741,0.493-1.112
		c0.249-0.564,0.487-1.112,0.736-1.648c0.248-0.538,0.506-1.064,0.78-1.584c0.092-0.17,0.146-0.357,0.162-0.545
		c0.019-0.191-0.003-0.384-0.063-0.568c-0.121-0.367-0.385-0.674-0.736-0.842l-11.231-5.452l-0.268-0.099l-0.149-0.023l-0.125-0.02
		l-0.162,0.007l-0.118,0.005l-0.271,0.064l-0.007,0.006l-0.245,0.111l-0.057,0.041l-0.169,0.122l-0.073,0.078l-0.115,0.126
		l-0.152,0.243C16.255,116.336,12.265,127.052,9.33,138l-0.044,0.286c-0.041,0.662,0.389,1.286,1.054,1.464l22.667,6.082
		c-2.192,8.501-3.679,17.265-4.42,26.087l-9.529-0.714l0.073-1.015c0.05-0.729,0.105-1.555,0.22-2.353l0.19-1.557l0.697-5.651
		l1.248-7.216c0.13-0.768-0.376-1.5-1.14-1.646L8.272,149.4c-0.773-0.149-1.488,0.356-1.488,1.131v0.005
		c-3,11.099-3.456,22.467-3.491,33.794c-0.003,0.787,0.932,1.429,1.721,1.432l23.771,0.124v0.553c0,9.788,0.642,19.565,2.488,29.085
		l-9.555,1.906l-0.121-0.134c-0.089-0.493-0.223-0.993-0.309-1.509c-0.096-0.579-0.217-1.158-0.319-1.706
		c-0.094-0.576-0.208-1.15-0.311-1.725c-0.057-0.314-0.115-0.637-0.172-0.955c-0.054-0.324-0.111-0.646-0.163-0.971
		c-0.057-0.37-0.119-0.743-0.167-1.107l-0.892-7.247c-0.054-0.501-0.09-1.006-0.125-1.508c-0.019-0.297-0.041-0.595-0.064-0.892
		c-0.032-0.379-0.21-0.729-0.5-0.974c-0.292-0.247-0.672-0.37-1.047-0.335l-12.438,1.059l-0.28,0.053l-0.175,0.07l-0.083,0.032
		l-0.175,0.115l-0.058,0.037l-0.188,0.185L4.12,199.93l-0.016,0.021l-0.143,0.21l-0.036,0.078l-0.073,0.176l-0.025,0.115
		l-0.039,0.158l-0.004,0.28v0.004c2,11.324,3.003,22.571,6.038,33.431l0.185,0.392l0.04,0.061l0.278,0.288l0.055,0.038
		c0.226,0.157,0.492,0.25,0.772,0.26l0.048,0.006l0.038-0.003l0.348-0.05l22.601-6.313c2.448,8.461,5.633,16.745,9.488,24.66
		l-8.568,4.269c-0.633-1.261-1.218-2.553-1.791-3.839c-0.236-0.531-0.475-1.063-0.704-1.585c-0.313-0.703-0.621-1.406-0.945-2.129
		c-0.175-0.376-0.331-0.758-0.494-1.139c-0.079-0.192-0.168-0.376-0.245-0.57c-0.235-0.576-0.461-1.168-0.694-1.776l-2.119-5.496
		c-0.28-0.726-1.085-1.096-1.814-0.831l-11.754,4.211l-0.261,0.124c-0.567,0.347-0.521,1.054-0.289,1.703
		c3.801,10.607,7.787,20.961,14.787,30.764v0.003l-0.1,0.273l-0.089,0.061l0.127,0.153l0.039,0.044
		c0.194,0.103,0.391,0.159,0.611,0.166l0.026,0.002l0.054-0.006l0.247-0.034l0.096-0.023l0.319-0.133l20.204-11.944
		c4.545,7.518,9.771,14.707,15.56,21.406l-7.164,6.299l-2.244-2.598c-0.258-0.3-0.506-0.607-0.754-0.92l-0.219-0.264
		c-0.319-0.401-0.63-0.809-0.939-1.206l-0.312-0.404c-0.257-0.331-0.515-0.659-0.764-0.975c-0.356-0.464-0.719-0.926-1.085-1.384
		c-0.627-0.796-1.277-1.62-1.859-2.438l-2.813-3.99c-0.452-0.644-1.336-0.8-1.982-0.354l-10.268,7.104
		c-0.646,0.448-0.809,1.336-0.362,1.985c6.397,9.252,13.733,18.008,21.807,26.021l0.22,0.179l0.143,0.076l0.102,0.054l0.156,0.048
		l0.112,0.032l0.137-0.34L57.923,314h0.006l0.235,0.329l0.039-0.112L58.388,314h0.083l0.169,0.208l0.076,0.108l0.224-0.106
		l16.508-16.638c6.308,6.166,13.183,11.833,20.461,16.846l-5.337,7.896l-1.447-1.017l-3.291-2.314l-2.069-1.616l-3.724-2.909
		c-0.273-0.204-0.538-0.419-0.802-0.639l-0.398-0.34l-0.414-0.357l-2.037-1.76c-0.286-0.248-0.652-0.372-1.038-0.344
		c-0.378,0.029-0.729,0.207-0.977,0.493l-8.147,9.459c-0.128,0.149-0.22,0.319-0.277,0.497c-0.172,0.527-0.022,1.133,0.426,1.518
		c8.609,7.416,17.921,14.032,27.686,19.672l0.003,0.003l0.318,0.131l0.089,0.022l0.251,0.031l0.058,0.007l0.038-0.003
		c0.204-0.007,0.408-0.051,0.592-0.144l0.086-0.051l0.149-0.095l0.089-0.083l0.115-0.105l0.168-0.231l11.731-20.322
		c7.671,4.335,15.739,8.03,24.029,10.996l-3.138,9.045c-0.646-0.232-1.295-0.486-1.97-0.748c-0.401-0.159-0.805-0.314-1.204-0.464
		l-0.674-0.262l-3.819-1.471l-1.805-0.801l-2.648-1.175l-0.381-0.169c-0.239-0.105-0.481-0.213-0.719-0.318
		c-0.434-0.19-0.851-0.379-1.267-0.566l-0.395-0.175c-0.201-0.096-0.395-0.197-0.592-0.293c-0.331-0.162-0.665-0.315-0.99-0.49
		l-0.111-0.045c-0.207-0.089-0.429-0.127-0.648-0.114l-0.354,0.063c-0.369,0.121-0.675,0.386-0.844,0.735l-5.452,11.231
		l-0.099,0.268l-0.022,0.137l-0.019,0.137l0.006,0.169l0.004,0.111l0.057,0.239l0.01,0.028l0.016,0.038l0.098,0.217l0.052,0.069
		l0.114,0.156l0.089,0.083l0.115,0.104l0.241,0.149c10.191,4.942,20.907,8.935,31.855,11.865l0.34,0.048l0.033,0.003l0.041-0.006
		c0.29-0.01,0.56-0.103,0.786-0.268l0.052-0.035l0.283-0.296l0.035-0.058l0.181-0.397l6.083-22.664
		c8.5,2.193,17.262,3.679,26.088,4.421l-0.716,9.529l-1.022-0.076c-0.362-0.022-0.748-0.052-1.145-0.083
		c-0.242-0.022-0.491-0.055-0.736-0.083c-0.159-0.02-0.314-0.032-0.47-0.054l-7.2-0.885l-7.218-1.248l-0.287-0.019
		c-0.658,0.019-1.231,0.486-1.359,1.154l-2.368,12.26c-0.038,0.194-0.035,0.386,0.003,0.567l0.022,0.06l0.063,0.2l0.086,0.163
		l0.045,0.08l0.146,0.178l0.029,0.031c0.194,0.197,0.446,0.338,0.738,0.392l0.003-0.394c11.098,2.158,22.47,2.91,33.793,2.91h0.003
		c0.786,0,1.427-0.239,1.429-1.025l0.125-23.275l0.553,0.097c9.794-0.063,19.57-0.981,29.083-2.827l1.909,9.384l-0.079,0.025
		l-0.401,0.077l-0.389,0.07c-0.257,0.044-0.506,0.09-0.77,0.132c-0.58,0.098-1.162,0.195-1.709,0.297
		c-0.312,0.051-0.621,0.109-0.933,0.163c-0.271,0.048-0.539,0.093-0.809,0.141c-0.996,0.178-2.023,0.359-3.017,0.489l-4.943,0.608
		l-2.308,0.283c-0.5,0.054-1.002,0.086-1.505,0.121c-0.299,0.022-0.595,0.041-0.892,0.066c-0.378,0.032-0.731,0.211-0.977,0.5
		c-0.245,0.29-0.366,0.665-0.334,1.044l1.06,12.441l0.05,0.273l0.013,0.032l0.089,0.222l0.035,0.058l0.111,0.169l0.063,0.069
		l0.122,0.128l0.019,0.019l0.086,0.061l0.099,0.07l0.12,0.061l0.112,0.051l0.136,0.038l0.109-0.026l0.238-0.037h0.019l0.121,0.055
		c11.324-0.971,22.572-2.973,33.431-6.01c0.665-0.184,1.089-0.795,1.041-1.457l-0.048-0.279l-6.315-22.597
		c8.466-2.45,16.748-5.634,24.659-9.485l4.271,8.569c-1.786,0.891-3.635,1.707-5.433,2.5c-0.7,0.309-1.403,0.617-2.123,0.941
		c-0.55,0.258-1.107,0.497-1.677,0.726l-0.028,0.014c-0.58,0.231-1.171,0.458-1.776,0.693l-5.5,2.12
		c-0.544,0.21-0.885,0.713-0.913,1.26c-0.01,0.185,0.016,0.373,0.083,0.554l4.211,11.754l0.194,0.35l0.054,0.07l0.273,0.261
		l0.048,0.029l0.303,0.149l0.073,0.025l0.372,0.057l0.029,0.004l0.13-0.01l0.089-0.01l0.26-0.063
		c10.612-3.8,20.961-8.669,30.764-14.472l0.003-0.003c0.678-0.401,0.904-1.276,0.503-1.954l-11.941-20.203
		c7.514-4.545,14.703-9.771,21.406-15.563l6.295,7.167l-0.815,0.707l-1.782,1.537c-0.767,0.659-1.598,1.302-2.399,1.919l-0.023,0.02
		c-0.458,0.353-0.913,0.706-1.343,1.047c-0.392,0.302-0.779,0.607-1.168,0.913l-0.217,0.172c-0.795,0.627-1.62,1.279-2.441,1.862
		l-3.991,2.813c-0.64,0.451-0.798,1.337-0.35,1.979l7.1,10.267l0.216,0.245l0.083,0.063l0.179,0.121l0.101,0.052l0.194,0.073
		l0.102,0.027l0.252,0.007l0.047-0.016h0.009l0.363-0.035l0.089,0.091l0.347-0.057h0.003c9.251-7,18.007-13.835,26.024-21.909
		l0.178-0.275l0.077-0.17l0.054-0.115l0.054-0.194l0.025-0.083l0.022-0.256l0.003-0.022l-0.028-0.278l-0.025-0.083l-0.058-0.185
		l-0.044-0.086l-0.086-0.159l-0.182-0.22l-16.674-16.509c6.165-6.312,11.817-13.183,16.827-20.464l7.886,5.34l-3.335,4.732
		l-2.767,3.542l-1.766,2.257c-0.207,0.277-0.423,0.548-0.649,0.815l-0.14,0.165c-0.185,0.22-0.373,0.437-0.57,0.662l-1.734,2.008
		c-0.245,0.287-0.37,0.659-0.344,1.038c0.029,0.378,0.207,0.729,0.493,0.977l9.462,8.147l0.222,0.156l0.089,0.045l0.156,0.066
		l0.111,0.029l0.144,0.032l0.117,0.009l0.089,0.007l0.048-0.004l0.176-0.019l0.111-0.02l0.169-0.054l0.104-0.041l0.169-0.1
		l0.085-0.051l0.22-0.21c7.416-8.605,14.036-17.921,19.676-27.686l0.003-0.004l0.076-0.172l0.039-0.085l0.044-0.191l-0.156-0.083
		l-0.169-0.194v-0.082c0-0.188,0.115-0.37,0.036-0.535l0.033-0.086l-0.052-0.153l-0.047-0.075l-0.106-0.128l-0.228-0.165
		L321.1,262.152c4.338-7.67,8.032-15.741,10.998-24.029l9.046,3.135l-0.121,0.318c-0.2,0.541-0.404,1.082-0.624,1.643
		c-0.146,0.372-0.29,0.744-0.429,1.113l-0.039,0.103l-0.124,0.321l-1.607,4.173l-1.977,4.456c-0.166,0.368-0.328,0.737-0.493,1.106
		c-0.179,0.408-0.353,0.799-0.532,1.19c-0.312,0.697-0.634,1.382-0.987,2.044c-0.089,0.171-0.143,0.355-0.159,0.547
		c-0.019,0.188,0.003,0.382,0.064,0.567c0.12,0.368,0.384,0.674,0.735,0.843l11.231,5.448l0.29,0.105l0.095,0.013l0.201,0.021
		l0.039,0.007l0.149-0.013l0.061-0.006l0.258-0.061l0.216-0.103l0.032-0.012l0.149-0.109l0.077-0.054l0.141-0.149l0.05-0.058
		l0.15-0.549C352.93,253.976,356.924,244,359.855,232h0.003l0.044,0.022c0.029-0.474-0.181-0.771-0.547-1.057
		c-0.146-0.115-0.318-0.124-0.506-0.175l-22.667-6.043c2.196-8.507,3.679-17.249,4.42-26.069l9.528,0.723l-0.073,1.026l-0.018,0.256
		c-0.023,0.307-0.045,0.61-0.071,0.909c-0.035,0.396-0.076,0.796-0.133,1.193l-0.884,7.2l-1.249,7.22l-0.019,0.283
		c0.016,0.655,0.487,1.231,1.155,1.362l12.26,2.245l0.27-0.094h0.01l0.054,0.117l0.214,0.036l0.076,0.009l0.175-0.038l0.08-0.032
		l0.153-0.08l0.077-0.047l0.13-0.108l0.07-0.066l0.105-0.13l0.057-0.077l0.083-0.156l0.041-0.083l0.08-0.253l0.01-0.008v-0.003
		c3-11.099,3.265-22.47,3.3-33.796c0-0.788-0.634-1.428-1.423-1.434l-18.023,0.044L346.326,185h-5.542v-0.823
		c0-9.793-0.833-19.57-2.679-29.085l9.459-1.907l0.064,0.069c0.092,0.513,0.207,1.032,0.292,1.566
		c0.099,0.582,0.206,1.163,0.311,1.712c0.092,0.583,0.204,1.165,0.306,1.746c0.159,0.886,0.319,1.8,0.446,2.688l0.048,0.321
		l0.464,3.753l0.431,3.501c0.054,0.499,0.089,1.002,0.125,1.505c0.018,0.299,0.038,0.595,0.063,0.892
		c0.031,0.38,0.21,0.731,0.5,0.978l0.031,0.018l0.188,0.131l0.083,0.04l0.162,0.068l0.099,0.028l0.159,0.034l0.108,0.01l0.092,0.008
		l0.125-0.005l12.438-1.059l0.276-0.051l0.185-0.075l0.077-0.03l0.187-0.12l0.045-0.032c0.146-0.116,0.267-0.261,0.359-0.425
		l0.02-0.044l0.089-0.213l0.016-0.069l0.237-0.2l0.195-0.28V169h-0.349c-0.967-12-3.017-22.248-6.057-33.11l-0.089-0.049
		l-0.029,0.022l-0.044-0.023l-0.303-0.352l-0.086-0.051l-0.138-0.09c-0.241-0.134-0.518-0.199-0.801-0.18l-0.283,0.053
		l-22.604,6.315c-2.451-8.466-5.637-16.748-9.487-24.663l8.567-4.268C334.974,114.389,335.788,116.237,336.581,118.035z
		 M322.965,114.944c-0.707,0.353-0.993,1.21-0.639,1.917l0.002,0.006c4.265,8.564,7.734,17.584,10.312,26.811l0.185,0.388
		l0.041,0.066l0.273,0.284l0.061,0.041l0.363,0.191l0.411,0.067l0.042,0.008l0.025-0.005l0.36-0.048l22.59-6.312
		c2.655,9.806,4.481,19.917,5.437,30.104l-9.57,0.813c-0.025-0.349-0.055-0.702-0.093-1.065l-0.432-3.514l-0.462-3.766
		c-0.022-0.159-0.047-0.316-0.073-0.476c-0.13-0.907-0.283-1.812-0.439-2.687c-0.101-0.566-0.203-1.137-0.295-1.718l-0.341-1.958
		c-0.08-0.475-0.159-0.952-0.249-1.436c-0.083-0.468-0.172-0.942-0.289-1.42l-0.01-0.057l-0.004-0.007l-0.006-0.025l-0.058-0.165
		l-0.028-0.08c-0.267-0.598-0.923-0.948-1.585-0.813l-12.155,2.479c-0.369,0.074-0.918,0.294-1.125,0.61
		c-0.21,0.315-0.429,0.702-0.429,1.073V154h0.082h0.182c1.992,10,3.125,19.975,3.192,30.059l0.051,2.028l0.038,0.172l0.022,0.162
		l0.051,0.146l0.042,0.133l0.07,0.131l0.061,0.114l0.099,0.116l0.08,0.096l0.108,0.091l0.102,0.083l0.124,0.067l0.118,0.066
		l0.14,0.043l0.127,0.039l0.149,0.017l0.137,0.014l23.457,0.125c-0.114,10.199-1.114,20.425-2.979,30.438l-9.474-1.83l1.018-5.907
		l0.697-5.662l0.194-1.579c0.124-0.865,0.185-1.734,0.235-2.498l0.003-0.036l0.178-2.437c0.058-0.786-0.531-1.471-1.318-1.529
		l-12.368-0.928c-0.378-0.028-0.75,0.096-1.041,0.344c-0.286,0.245-0.505,0.597-0.531,0.974l-0.045,0.006v0.002v0.002
		c-1,9.599-2.295,19.144-4.765,28.363l-0.027,0.287c-0.029,0.474,0.191,0.926,0.558,1.212c0.146,0.115,0.324,0.201,0.515,0.252
		l22.656,6.079c-2.721,9.837-6.31,19.472-10.683,28.682l-8.64-4.191c0.335-0.704,0.646-1.41,0.949-2.101l0.064-0.146
		c0.141-0.314,0.28-0.63,0.424-0.951l2.008-4.529l1.063-2.759l0.694-1.798c0.153-0.405,0.309-0.803,0.464-1.204l0.083-0.216
		c0.411-1.054,0.827-2.139,1.168-3.26c0.223-0.734-0.171-1.515-0.897-1.766l-11.719-4.064c-0.745-0.258-1.56,0.137-1.82,0.882
		c-3.138,9.042-7.161,17.832-11.958,26.129l-0.051,0.115l-0.067,0.146l-0.041,0.182l0.003,0.089l0.019,0.194v0.085
		c0,0.185,0.035,0.366,0.118,0.535l0.025,0.063l0.102,0.172l0.055,0.063l0.131,0.141l0.229,0.168l20.311,11.726
		c-5.152,8.755-11.104,17.129-17.718,24.933l-7.292-6.276l0.814-0.939c0.141-0.162,0.28-0.327,0.42-0.489l0.315-0.366
		c0.153-0.188,0.302-0.379,0.452-0.566l0.264-0.335l4.555-5.83l4.22-5.983l0.003-0.006c0.223-0.315,0.309-0.704,0.239-1.083
		c-0.07-0.375-0.287-0.709-0.605-0.926l-10.273-6.951c-0.315-0.213-0.7-0.292-1.073-0.219c-0.373,0.072-0.701,0.289-0.914,0.604
		c-5.372,7.97-11.531,15.455-18.297,22.253l-0.182,0.226l-0.069,0.128l-0.061,0.117l-0.048,0.166l-0.032,0.102l-0.019,0.229
		l-0.006,0.048l0.029,0.276l0.019,0.066l0.063,0.2l0.051,0.097l0.08,0.149l0.182,0.22l16.667,16.499
		c-7.275,7.215-15.146,13.813-23.437,19.64l-5.48-7.925l2.839-2.002l0.436-0.321c0.726-0.534,1.439-1.085,2.123-1.63
		c0.449-0.353,0.898-0.706,1.372-1.072c0.449-0.356,0.904-0.71,1.359-1.06c0.828-0.64,1.595-1.302,2.423-2.009l3.609-3.191v-0.004
		l0.092-0.003c0.286-0.249,0.509-0.602,0.534-0.983c0.025-0.379-0.079-0.754-0.331-1.041l-8.176-9.318
		c-0.251-0.283-0.652-0.459-1.03-0.48c-0.375-0.025-1.089,0.102-1.089,0.353v0.004c-6,6.365-15.012,12.059-23.223,16.922
		c-0.682,0.401-0.882,1.276-0.479,1.957l11.949,20.191c-8.867,5.152-18.161,9.528-27.693,13.033l-3.252-9.09l4.18-1.613
		c0.369-0.141,0.745-0.29,1.117-0.434c0.652-0.254,1.297-0.524,1.94-0.812c0.204-0.089,0.416-0.169,0.616-0.264
		c0.268-0.121,0.539-0.239,0.805-0.36c0.424-0.185,0.847-0.375,1.273-0.56c1.7-0.752,3.44-1.519,5.156-2.358
		c0.573-0.283,1.146-0.573,1.709-0.872c0.684-0.363,0.952-1.206,0.608-1.899l-5.531-11.103c-0.354-0.706-1.209-0.995-1.917-0.643
		c-8.564,4.268-17.587,7.741-26.817,10.318c-0.761,0.213-1.207,1.003-0.993,1.76l6.311,22.591
		c-9.806,2.654-19.917,4.481-30.105,5.433l-0.814-9.566c0.35-0.025,0.703-0.054,1.066-0.093l2.317-0.286l4.961-0.608l0.268-0.041
		c0.977-0.137,1.951-0.306,2.893-0.472c0.57-0.102,1.136-0.203,1.719-0.298l2.429-0.418c0.318-0.054,0.636-0.107,0.958-0.168
		c0.471-0.083,0.945-0.172,1.429-0.29l0.058-0.01l0.003-0.003l0.029-0.007l0.172-0.061l0.07-0.025
		c0.599-0.268,0.951-0.92,0.814-1.584l-2.476-12.155c-0.077-0.372-0.296-1.167-0.611-1.376c-0.318-0.207-0.701-0.676-1.072-0.676
		h-0.01c-9.774,3-19.844,3.505-29.93,3.573l-1.963,0.242l-0.15,0.133l-0.133,0.071l-0.153,0.078l-0.114,0.05l-0.144,0.086
		l-0.099,0.055l-0.134,0.113l-0.076,0.065l-0.118,0.14l-0.057,0.07l-0.089,0.165l-0.041,0.076l-0.063,0.197l-0.02,0.067
		l-0.032,0.286l-0.125,23.459c-10.2-0.114-20.423-1.113-30.436-2.979l1.831-9.475l5.907,1.019l5.971,0.734l1.27,0.156
		c0.439,0.063,0.878,0.111,1.308,0.146c0.426,0.038,0.84,0.067,1.226,0.092l2.438,0.179c0.792,0.045,1.471-0.531,1.528-1.317
		l0.926-12.371c0.028-0.376-0.092-1.042-0.341-1.328c-0.245-0.287-0.599-0.784-0.974-0.784h-0.01
		c-9.605,0-19.147-2.046-28.364-4.516l-0.139,0.119l-0.15,0.051c-0.662-0.041-1.283,0.425-1.461,1.093l-6.079,22.672
		c-9.835-2.721-19.472-6.302-28.683-10.675l4.192-8.635c0.7,0.334,1.407,0.645,2.094,0.947c0.242,0.108,0.484,0.218,0.729,0.326
		l0.372-0.114L119.88,341h0.003l0.283,0.388l4.277,1.788c0.402,0.149,0.799,0.374,1.2,0.529c0.655,0.255,1.331,0.548,2.011,0.793
		c0.484,0.172,0.971,0.36,1.467,0.513c0.732,0.226,1.512-0.164,1.767-0.89l4.061-11.717c0.261-0.744-0.213-1.555-0.958-1.815
		c-9.045-3.143-17.208-7.161-26.208-11.955v-0.003l-0.017-0.042l-0.126-0.073l-0.152-0.041l-0.088-0.022l-0.209-0.006l-0.061,0.201
		c-0.188,0.014-0.369,0.352-0.538,0.352h-0.003l-0.232-0.059l-0.035-0.07l-0.168,0.104l-0.165,0.207l-11.725,20.3
		c-8.756-5.152-17.132-11.112-24.937-17.725l6.277-7.294l0.952,0.82c0.28,0.245,0.566,0.492,0.859,0.737
		c0.29,0.241,0.585,0.48,0.888,0.706l5.66,4.551l5.822,4.22v0.004l0.171,0.003l0.093,0.003l0.37,0.162l0.132,0.038l0.354,0.052
		l0.036,0.006l0.258-0.025c0.379-0.067,0.715-0.286,0.929-0.604l6.955-10.271c0.211-0.315,0.29-0.7,0.22-1.072
		c-0.073-0.372-0.117-0.7-0.432-0.914c-7.969-5.375-15.084-11.53-22.084-18.296v-0.004l-0.242-0.054l-0.236-0.125l-0.202-0.085
		l-0.107-0.045l-0.204-0.058l-0.078-0.022l-0.229-0.104L75.449,294h-0.018l-0.283,0.11l-0.048,0.052l-0.217,0.089l-0.096,0.062
		l-0.149,0.086l-0.22,0.185L57.917,311.25c-7.212-7.269-13.81-15.142-19.641-23.432l7.925-5.482l2.001,2.84
		c0.628,0.881,1.299,1.732,1.948,2.552c0.356,0.449,0.713,0.901,1.079,1.382c0.179,0.223,0.351,0.445,0.525,0.668
		c0.176,0.227,0.35,0.449,0.525,0.675c0.322,0.418,0.653,0.844,0.987,1.267l0.287,0.348c0.245,0.302,0.49,0.607,0.745,0.906
		l3.191,3.699l0.007,0.002c0.248,0.29,0.601,0.468,0.983,0.493l0.096,0.004c0.347,0,0.684-0.124,0.945-0.356l9.315-8.188
		c0.287-0.249,0.367-0.603,0.392-0.981c0.026-0.378-0.445-0.751-0.445-1.033v-0.004l0.088-0.003l0.415-0.003
		c-6.366-7.231-11.503-15.063-16.503-23.272v-0.003c-2-0.678-1.65-0.903-2.329-0.502l-20.376,11.938
		c-5.152-8.866-9.623-18.173-13.127-27.702l9.044-3.259l1.593,4.194c0.402,1.051,0.814,2.127,1.286,3.174
		c0.07,0.162,0.131,0.324,0.204,0.483c0.076,0.169,0.147,0.341,0.221,0.513c0.235,0.522,0.249,1.047,0.478,1.572
		c0.999,2.263,2.006,4.602,3.006,6.85v0.002l0.221,0.008l0.12,0.012l0.245,0.262l0.116,0.092l0.181,0.13l0.118,0.077l0.268,0.111
		l0.175,0.038l0.139,0.019l0.119,0.346L34.575,262h0.01c0.182,0,0.362-0.38,0.535-0.466l11.104-5.701
		c0.707-0.35,0.993-1.29,0.64-1.993c-4.268-8.571-7.74-17.635-10.318-26.863l-0.102-0.282l-0.143-0.236l-0.007,0.036
		c-0.232-0.299-0.576-0.495-0.948-0.495h-0.07l-0.208-0.055l-0.28,0.025l-22.59,6.299c-2.658-9.806-4.481-19.921-5.436-30.109
		l9.57-0.818c0.026,0.351,0.055,0.7,0.093,1.06l0.302,4.637l0.058,2.645v0.002l0.309,0.265c0.099,0.72,0.349,1.43,0.473,2.132
		c0.044,0.258,0.157,0.521,0.201,0.773c0.102,0.565,0.234,1.129,0.329,1.706l0.36,1.99c0.078,0.464,0.166,0.931,0.252,1.403
		c0.08,0.455,0.172,0.916,0.284,1.383l0.021,0.095l0.003,0.012l0.005,0.021c0.041,0.176,0.121,0.335,0.22,0.475l0.006,0.01
		l0.172,0.197l0.007,0.006c0.261,0.249,0.611,0.398,0.983,0.398l0.287-0.028l12.154-2.477c0.369-0.076,1.107-0.296,1.314-0.612
		c0.21-0.317,0.62-0.702,0.62-1.074V216h-0.467c-1.992-10-3.214-19.671-3.278-29.752l-0.096-1.877l-0.06-0.101l-0.038-0.111
		l-0.057-0.143l-0.042-0.109l-0.079-0.139l-0.054-0.098l-0.102-0.124l-0.073-0.089l-0.115-0.095l-0.098-0.079l-0.125-0.067
		l-0.117-0.063l-0.137-0.045l-0.13-0.042l-0.146-0.014l-0.137-0.014l-23.457-0.124c0.115-10.201,1.114-20.427,2.979-30.438
		l9.475,1.829l-1.021,5.909l-0.824,6.721l-0.063,0.52c-0.032,0.22-0.061,0.437-0.083,0.652l-0.013,0.112
		c-0.016,0.171-0.035,0.343-0.051,0.518l-0.022,0.287l-0.029,0.344l-0.012,0.211l-0.029,0.403l-0.127,1.734l-0.051,0.708
		c-0.058,0.786,0.531,1.471,1.317,1.529l12.368,0.927l0.108,0.005c0.341,0,0.902-0.123,1.163-0.346
		c0.286-0.249,0.724-0.599,0.724-0.978v-0.006c0-9.605,2.105-19.15,4.575-28.367l-0.069-0.285c0.035-0.567-0.333-1.106-0.843-1.362
		l-0.299-0.102l-22.669-6.077c2.721-9.836,6.304-19.472,10.677-28.686l8.64,4.195c-0.338,0.706-0.652,1.416-0.957,2.11
		c-0.158,0.359-0.317,0.719-0.481,1.085l-2.007,4.525l-0.254,0.66l-1.509,3.91c-0.129,0.341-0.26,0.683-0.395,1.025l-0.066,0.169
		c-0.255,0.651-0.507,1.323-0.751,2.002c-0.175,0.486-0.347,0.975-0.5,1.475c-0.226,0.733,0.171,1.514,0.897,1.765l11.718,4.064
		c0.156,0.054,0.315,0.08,0.468,0.08l0.073-0.01l0.306-0.048l0.149-0.058l0.201-0.099l0.124-0.073l0.242-0.235l0.073-0.099
		l0.172-0.318l-0.229-0.021c3.138-9.044,7.715-17.834,11.715-26.13v-0.002l0.296-0.114l0.185-0.144l0.105-0.194l-0.287-0.076
		l-0.299-0.218v-0.063c0-0.186,0.274-0.369,0.193-0.536l0.13-0.062l-0.023-0.174l-0.035-0.083l-0.091-0.122l-0.224-0.166
		L30.429,94.975c5.152-8.753,11.106-17.131,17.721-24.934l7.292,6.275l-0.819,0.948c-0.245,0.282-0.493,0.569-0.738,0.859
		c-0.242,0.293-0.484,0.59-0.71,0.892l-1.776,2.274l-2.775,3.553l-1.836,2.604l-2.387,3.39c-0.223,0.313-0.309,0.701-0.239,1.079
		c0.071,0.379,0.287,0.711,0.605,0.926l10.273,6.951l0.141,0.067l0.162,0.077l0.175,0.053l0.206,0.032l0.115,0.016l0.273-0.025
		c0.373-0.071,1.076-0.289,1.29-0.604l0.382-0.005V99.4c5-7.966,11.005-15.4,17.768-22.4h-0.115h-0.054l0.032,0l0.102-0.107
		l0.077-0.137l0.044-0.08l0.051-0.176l0.022-0.085l0.025-0.238l0.003-0.037l-0.029-0.278l-0.02-0.066l-0.063-0.2l-0.044-0.083
		l-0.086-0.164l-0.181-0.218L58.649,58.632c7.269-7.212,15.143-13.81,23.437-19.641l2.591,3.745l2.89,4.18l-2.839,2.001
		c-0.607,0.432-1.197,0.885-1.773,1.337c-0.264,0.205-0.528,0.411-0.786,0.613c-0.449,0.356-0.897,0.711-1.378,1.078
		c-0.296,0.236-0.596,0.468-0.898,0.701c-0.149,0.116-0.299,0.235-0.448,0.351c-0.417,0.322-0.841,0.649-1.264,0.986l-0.213,0.174
		c-0.347,0.279-0.697,0.562-1.041,0.854l-1.993,1.723l-1.709,1.475c-0.286,0.249-0.464,0.603-0.49,0.983
		c-0.025,0.38,0.102,0.755,0.354,1.041l8.186,8.8C81.526,69.318,81.879,69,82.258,69h0.089h0.178h0.016l0.242,0.455l0.028,0.246
		l0.226,0.025l0.029-0.282L83.292,69h0.002c7.235-6,15.489-11.415,23.489-16.278v0.017c1-0.402,0.8-1.271,0.397-1.949l-11.99-20.188
		c8.868-5.152,18.146-9.526,27.679-13.029l3.242,9.091l-4.192,1.613c-1.213,0.465-2.47,0.945-3.667,1.508
		c-0.694,0.312-1.389,0.617-2.083,0.923c-0.165,0.073-0.333,0.146-0.499,0.22c-1.865,0.822-3.764,1.678-5.623,2.63
		c-0.246,0.127-0.497,0.248-0.742,0.378c-0.684,0.364-0.952,1.206-0.607,1.898l5.531,11.103l0.103,0.148l0.079,0.114l0.137,0.145
		l0.108,0.088l0.207,0.13l0.21,0.092l0.159,0.037l0.185,0.025l0.092,0.013l0.063-0.007l0.131-0.015l0.159-0.026l0.254-0.092
		l0.345-0.011l0.321-0.391V46h-0.534c8.564-3,17.538-6.95,26.761-9.527c0.761-0.213,1.181-0.607,0.967-1.367l-6.322-22.393
		c9.806-2.655,19.911-4.382,30.099-5.335l0.813,9.617c-0.351,0.026-0.707,0.08-1.066,0.118l-2.317,0.296l-4.965,0.616
		c-1.069,0.141-2.132,0.333-3.16,0.515l-0.048,0.01c-0.553,0.099-1.104,0.198-1.671,0.291l-1.906,0.33
		c-0.49,0.082-0.986,0.167-1.486,0.259c-0.48,0.084-0.968-0.189-1.458-0.07L150.468,19h-0.003l-0.029,0.372l-0.194,0.25
		l-0.047,0.107c-0.599,0.269-0.952,0.967-0.815,1.633l2.476,12.177c0.077,0.372,0.296,0.708,0.611,0.918l0.076,0.041l0.242,0.116
		l0.124,0.04l0.315,0.046l0.019,0.169L153.539,35h0.007h0.237v0.032c10-1.992,19.729-3.214,29.814-3.278l1.902-0.098
		c0.783-0.004,1.389-0.682,1.396-1.465l0.107-23.48c10.2,0.113,20.417,1.103,30.427,2.968l-1.833,9.47l-5.903-1.021l-7.247-0.894
		c-0.869-0.125-1.738-0.185-2.499-0.236l-0.038-0.003l-1.009,0.018L197.486,17h-0.003h-0.006c-0.787,0-1.471,0.441-1.527,1.226
		L195.02,30.55c-0.029,0.377,0.095,0.709,0.344,0.998c0.245,0.286,0.598,0.453,0.973,0.453h0.01c9.603,0,19.147,1,28.364,5h0.003
		l0.337-0.035l0.022-0.036l0.054-0.025c0.286-0.009,0.557-0.113,0.783-0.276l0.054-0.041l0.28-0.298l0.039-0.06l0.178-0.396
		l6.079-22.654c9.834,2.721,19.472,6.31,28.682,10.684l-4.191,8.64c-0.706-0.336-1.416-0.646-2.109-0.953
		c-0.36-0.159-0.723-0.316-1.085-0.479l-4.526-2.007l-2.336-0.9l-2.234-0.862c-0.337-0.128-0.674-0.259-1.009-0.39l-0.187-0.072
		c-0.347-0.136-0.707-0.271-1.064-0.405c-0.213-0.082-0.423-0.166-0.639-0.245l-0.213-0.072c-0.512-0.186-1.031-0.367-1.556-0.529
		c-0.732-0.223-1.515,0.172-1.77,0.898l-4.064,11.72c-0.258,0.744,0.137,1.559,0.881,1.817l0.01-0.489
		c9.039,3.14,17.826,6.466,26.12,11.466h0.003l0.312,0.622l0.096,0.266l0.249,0.154l0.057,0.071l0.038-0.538L262.323,51h0.006
		l0.073,0.536l0.19,0.21l0.086,0.088l0.149-0.024l0.08-0.039l0.127-0.099l0.166-0.221l11.725-20.307
		c8.756,5.153,17.133,11.107,24.937,17.719l-6.279,7.291l-0.939-0.811c-0.283-0.247-0.573-0.498-0.869-0.744l-0.411-0.328
		c-0.16-0.127-0.315-0.26-0.478-0.381l-5.827-4.552l-5.987-4.22l-0.006-0.005c-0.312-0.222-0.704-0.307-1.08-0.237
		c-0.378,0.068-0.712,0.286-0.926,0.604l-6.954,10.273c-0.21,0.314-0.29,0.699-0.22,1.071c0.073,0.373,0.29,0.683,0.605,0.895
		C278.462,63.096,285.951,69,292.746,76h-0.068h0.186l0.191,0.179l0.136,0.112l0.156,0.071l0.132,0.048l0.137-0.205L293.754,76
		h0.003l0.143,0.211l0.134,0.1l0.137,0.015l0.13-0.013l0.137-0.057l0.111-0.051l0.22-0.178l16.502-16.666
		c7.212,7.271,13.81,15.144,19.64,23.438l-7.924,5.48l-2.002-2.839c-0.561-0.785-1.153-1.539-1.731-2.278l-0.22-0.279
		c-0.356-0.449-0.71-0.897-1.076-1.373l-0.309-0.398c-0.255-0.321-0.506-0.644-0.754-0.966c-0.219-0.283-0.446-0.571-0.671-0.859
		l-0.303-0.388c-0.334-0.424-0.681-0.848-1.035-1.261l-3.195-3.698c-0.248-0.288-0.601-0.465-0.983-0.49
		c-0.378-0.028-0.754,0.099-1.041,0.351l-9.316,8.188c-0.286,0.252-0.458,0.603-0.483,0.981c-0.025,0.377,0.102,0.75,0.354,1.036
		l0.002,0.003l0.003-0.14C306.594,91.1,312.284,99,317.147,107h0.003l0.213,0.415l0.071,0.138l0.2,0.185l0.08,0.095l0.302,0.168
		h0.003l0.324,0.012l0.035-0.009l0.061-0.015l0.245-0.037l0.098-0.024l0.322-0.135l20.19-11.937
		c5.153,8.864,9.528,18.171,13.033,27.701l-9.089,3.257l-1.614-4.184c-0.465-1.212-0.945-2.468-1.509-3.666
		c-0.152-0.34-0.302-0.684-0.455-1.024c-0.156-0.354-0.312-0.704-0.468-1.057c-0.232-0.528-0.468-1.063-0.707-1.598
		c-0.072-0.169-0.149-0.337-0.226-0.506c-0.458-1.019-0.929-2.04-1.426-3.056c-0.28-0.571-0.569-1.139-0.869-1.702
		c-0.363-0.685-1.207-0.955-1.896-0.608L322.965,114.944z"/>
	<path fill="#1E3A2B" d="M287.567,82.891c-13.37-13.454-29.56-24.421-46.823-31.639C223.469,43.992,204.325,40,185.382,40h-0.01
		h-0.013h-0.792h-0.057c-18.925,0-38.065,3.808-55.34,10.95c-17.333,7.13-33.581,17.986-46.992,31.368
		c-13.457,13.369-24.383,29.568-31.601,46.831c-7.26,17.272-11.136,36.421-11.209,55.368l-0.016,0.791
		c-0.009,18.966,3.766,38.133,10.914,55.426c7.132,17.329,17.972,33.579,31.353,46.991c2.623,2.64,5.385,5.153,8.21,7.586
		c1.391-4.433,4.17-8.502,8.689-12.016c-7.092-16.427,0.333-27.346,17.562-32.842l0.169-0.054l0.168-0.035
		c3.811-0.726,13.546-2.88,14.806-7.438c0.91-3.278-2.664-7.734-5.127-10.359c-7.302,0.566-14.668-1.881-20.166-6.738
		c-10.258-9.058-13.364-23.975-4.281-35.016c4.517-5.479,11.171-9.92,14.943-15.77c1.396-2.168,2.336-4.459,2.762-7.005
		c1.184-7.088-1.986-16.772-3.79-23.647c-2.958-11.234-1.509-21.909,4.111-31.836c-4.315-4.727-6.26-11.251-5.143-17.636
		c1.018-5.836,4.475-10.964,9.5-14.099l0.379-0.235c-1.235-7.286-0.741-14.7,2.734-21.487l1.002-1.951l2.145,0.444
		c6.102,1.261,10.022,5.53,12.556,10.902c0.044-0.222,0.086-0.441,0.124-0.66c0.764-3.961,2.339-9.646,6.734-10.975l1-0.299
		l0.958,0.406c5.904,2.5,10.194,6.417,12.991,11.52l0.713-0.091c17.816-2.278,37.695-3.308,55.375,0.433
		c13.046,2.757,25.49,8.32,33.95,18.97c6.709,8.44,9.757,18.631,10.579,29.236c10.347,12.354,20.662,29.079,16.798,45.826
		c-3.099,13.438-14.386,22.82-26.151,29.354c8.847,3.328,18.566,8.777,20.521,17.828c0.978,4.498-0.188,8.985-2.272,12.982
		l-1.324,2.54c0.856,3.691,0.993,7.466,0.131,11.206c-2.508,10.923-12.635,18.042-22.365,22.695
		c4.28,6.155,9.863,10.653,14.577,16.598c5.401,6.817,9.411,13.704,12.428,20.754c3.252-2.718,6.403-5.552,9.395-8.535
		c13.454-13.372,24.38-29.563,31.601-46.823c7.26-17.277,11.133-36.422,11.206-55.366l0.02-0.8
		c0.002-18.962-3.769-38.122-10.917-55.412C311.791,112.553,300.947,96.305,287.567,82.891z"/>
	<polygon fill="#1E3A2B" points="292.332,76.04 292.332,76.129 292.678,76.129 292.606,76.093 	"/>
	<path fill="#1E3A2B" d="M136.325,292.068c-3.215,7.467-5.691,16.932-7.422,26.932h0.003c-0.08,1-0.162,1.24-0.242,1.743
		c4.729,1.955,9.586,3.791,14.547,5.248c-1.374-6.229-2.084-12.23-2.084-18.271c0.003-11.462,2.473-22.589,7.416-33.374l-0.01,0.007
		l0.01-0.005C143.686,278.66,139.619,284.4,136.325,292.068z"/>
	<path fill="#1E3A2B" d="M139.459,149.054c-6.493-2.168-10.846-0.965-13.065,3.618C128.769,149.301,133.123,148.095,139.459,149.054
		z"/>
	<path fill="#1E3A2B" d="M233.635,182.076c6.438-3.418,9.618-9.179,9.535-17.291c-0.576-4.631-4.093-5.675-6.444-2.072
		c-0.878,1.121-0.198,2.486,0.598,0.997c1.665-3.13,4.634-2.407,4.752,1.957C242.25,172.086,239.408,177.555,233.635,182.076z"/>
	<path fill="#1E3A2B" d="M246.435,258.206c15.78-6.857,23.857-15.484,24.227-25.877c0.089-2.398-0.233-4.891-0.965-7.478
		c-3.972-8.996-10.49-15.697-19.547-20.147c9.239,3.055,16.397,8.716,21.464,16.996c1.658-3.184,2.422-6.176,2.288-8.973
		c-0.395-8.392-8.857-15.037-25.382-19.946c20.634-9.838,31.129-22.011,31.493-36.521c0.283-11.284-5.542-23.981-17.525-38.092
		c-2.531-39.213-34.703-54.854-96.703-46.92v0.002c1,2.264,1.449,4.352,1.707,6.262c0.09,0.638,0.125,1.256,0.141,1.854
		c45.451-1.273,64.761,9.045,57.944,30.954c-2.383,6.834-7.622,12.947-15.712,18.348c3.689,6.273,5.864,11.681,6.533,16.226
		c10.041,0.799,15.687,4.856,16.944,12.17c22.523-7.412,29.347-19.408,20.474-35.982c10.296,14.338,7.412,26.391-8.651,36.161
		c1.799,13.259-0.28,22.282-6.248,27.075c-4.15,3.335-12.673,5.84-12.282-2.203c-2.167,6.389-0.366,10.411,5.401,12.066
		c-0.198,13.834,1.416,26.687,4.834,38.557c2.705,9.848,5.327,17.479,7.87,22.894c-4.465-7.495-7.931-15.079-10.391-22.743
		c-21.645,1.447-42.635,6.646-62.966,15.595c-0.729-3.962-2.139-7.438-4.236-10.437c15.464-2.984,26.594-6.549,33.389-10.693
		c-19.192,6.646-36.667,8.701-52.419,6.172c-2.355-0.494-4.385-1.575-6.097-3.253c-7.091-6.96-18.383-47.973-17.556-58.125
		c0.388-3.135,0.977-6.426,1.763-9.882c0.239-0.745,0.398-1.496,0.468-2.257c4.223,1.403,8.568,0.913,13.033-1.474
		c1.34-1.028,1.235-1.203-0.309-0.524c-2.594,1.374-5.121,1.648-8.65,1.384c-1.433-0.217-2.184-0.602-2.387-1.174
		c-0.713-2.05,0.881-2.646,2.263-3.053c0.261,3.65,4.347,4.608,6.442,2.766c1.101-0.971,1.378-3.214,0.824-4.57
		c1.497,0.21,3.072,1.362,3.647,3.189c-0.494,1.957-1.671,4.876-3.533,8.771c-1.945,3.679-5.117,9.089-3.3,13.469
		c1.009,2.428,3.374,3.733,7.091,3.902c1.311-0.144,2.326,0.76,3.574,0.767c1.906,0.013,4.014-0.773,5.786-0.413
		c3.727,1.244,6.188,0.499,7.39-2.225c1.385-3.12,0.662-5.946-2.161-8.47c-1.61-1.133-2.053-0.713-0.538,0.468
		c1.187,0.996,1.931,2.177,2.234,3.542c0.398,1.812,0.045,3.562-1.308,4.893c-2.186,2.145-5.047-0.576-7.018-1.986
		c-1.25-0.888-2.297-1.133-3.233-1.021c-3.695,0.442-3.708,4.366-8.205,2.015c-3.826-1.999-4.383-5.459-1.684-10.376
		c3.284-6.04,5.697-11.89,7.237-17.556c1.012-10.496-5.229-16.006-18.721-16.521c0.78-23.522,5.487-35.867,14.119-37.043
		c-0.808-3.017-1.623-5.967-8.545-6.769c-3.501-0.404-4.688-6.289-5.185-8.733c-4.29,2.677-7.303,7.071-8.189,12.151
		c-1.085,6.213,1.175,12.54,5.942,16.667c-6.238,9.911-7.893,20.436-4.958,31.578c3.673,13.988,6.836,23.361,0.659,32.938
		c-3.857,5.99-10.563,10.49-15.137,16.045c-8.1,9.844-5.112,23.017,3.962,31.027c5.184,4.583,12.211,6.843,19.357,5.885
		c12.068,12.164,8.653,20.041-10.236,23.637c-17.393,5.555-22.336,15.901-14.828,31.047c-5.882,3.938-9.271,8.887-10.22,14.822
		c3.711,3.028,7.575,5.877,11.575,8.535c-0.188-0.758-0.28-1.546-0.22-2.377c0.656-2.346,2.512-4.579,5.561-6.709
		c9.309-6.489,14.453-9.284,21.715-19.114c-2.372,3.931-4.631,7.109-6.785,9.547c-2.913,2.982-6.022,5.548-9.333,7.693
		c-5.993,3.874-11.877,6.856-9.159,12.132c6.375,4.104,13.093,7.723,20.095,10.816c0.207-1.244,0.417-2.49,0.599-3.773
		c5.264-33.889,20.563-53.001,45.894-57.326c19.414-1.743,21.572,0.624,38.137,4.351c3.826,0.863,8.145,1.468,12.963,1.818
		c1.849,0.14,3.778,0.237,5.774,0.295c0.404,1.814,0.792,3.606,1.151,5.38c3.071,14.907,4.822,28.493,5.265,40.757
		c-1.162,0.861-2.298,3.281-3.304,7.281c-0.369,1.471-0.646,3.022-0.843,4.593c-0.067,0.548-0.128,1.094-0.172,1.644
		c3.386-1.123,6.715-2.366,9.987-3.726c-0.032-0.23-0.054-0.464-0.092-0.693c0.181-0.347,0.334-0.73,0.509-1.085l0.022-0.01
		c2.257-4.57,3.943-9.846,4.984-15.888c0.818-4.702,1.267-9.858,1.346-15.466c0.025-1.865,0.01-3.78-0.044-5.747
		c0.417,0.446,0.823,0.863,1.222,1.251c1.435,1.395,2.549,2.008,3.345,1.999c4.401,6.594,7.681,14.096,10.681,22.439v-0.002
		c0,0.496,0.344,0.988,0.5,1.489c0.659-0.418,1.315-0.847,1.964-1.276c-0.156-0.488-0.315-0.97-0.478-1.454
		c-2.887-8.614-6.612-16.351-11.246-23.144c0.02-0.249,0.017-0.529,0-0.815c4.387,4.252,8.394,8.677,12.031,13.274
		c2.043,2.582,3.954,5.229,5.761,7.922c0.599-0.439,1.193-0.882,1.786-1.328c-1.824-2.71-3.724-5.388-5.783-7.99
		c-4.373-5.525-9.274-10.809-14.71-15.847c-2.279-6.254-9.57-19.125-14.175-21.55c3.816,1.149,12.495,10.318,15.932,14.067
		c7.378,8.036,13.495,16.884,18.354,26.544c0.468,1.339,0.917,2.684,1.346,4.033c0.63-0.483,1.254-0.971,1.875-1.465
		c-3.011-7.629-7.177-15.067-13.014-22.434C257.049,270.287,251.359,266.657,246.435,258.206z M123.658,140.033
		c13.686-1.575,19.837,2.922,18.453,13.495c-5.516-3.498-10.888-2.998-16.104,1.502c-0.29-0.786-0.656-1.579-1.104-2.377
		C123.202,148.124,122.786,143.919,123.658,140.033z M239.15,270.733c2.158,3.356,4.166,6.192,6.031,8.517
		c0.408,8.854,0.023,16.715-1.168,23.58c-0.904,5.232-2.275,9.879-4.112,13.939c-0.78-2.683-1.626-4.475-2.492-5.369
		c-0.379-11.282-1.865-23.673-4.45-37.154c-1.114-5.817-1.228-12.062,1.942-17.288C233.567,262.448,236.371,266.404,239.15,270.733z
		"/>
	<path fill="#1E3A2B" d="M155.474,93.834c-2.787,1.324-4.258,3.559-4.411,6.702c23.765-0.651,40.356,5.109,49.773,17.289
		c16.394-8.908,19.217-16.671,8.472-23.285c-5.945-4.961-20.327-7.358-41.922-7.097C165.936,89.897,162.378,92.059,155.474,93.834z"
		/>
	<path fill="#1E3A2B" d="M129.711,60.409c-3.561,6.951-3.975,15.29-1.241,25.017c0.844,2.839,2.17,4.452,3.979,4.841
		c5.201,1.26,7.966,4.227,8.293,8.905c0.43,4.338,1.786,6.559,3.307,7.014c-0.318,1.572-0.56,3.145-0.725,4.721
		c-0.198,1.843-0.292,3.695-0.29,5.551c-0.929,0.343-1.623,1.636-1.623,3.176c0,1.801,0.945,3.262,2.116,3.262
		c1.168,0,2.12-1.461,2.12-3.262c0-1.464-0.627-2.698-1.483-3.116c-0.013-1.833,0.083-3.663,0.28-5.493
		c0.171-1.61,0.42-3.218,0.749-4.815c1.575-0.404,3.122-2.527,3.841-6.021c0.633-4.672,3.021-7.464,7.148-8.38
		c7.903-2.518,10.461-7.823,8.736-14.242c-1.862-8.696-6.655-14.68-14.376-17.946c-4.313,1.301-6.314,11.678-6.002,31.128
		C143.54,72.36,138.601,62.243,129.711,60.409z"/>
	<path fill="#1E3A2B" d="M182.68,155.711c-2.963,1.031-7.763,1.222-14.386,0.573c5.611,1.734,11.792,1.709,18.536-0.086
		c3.689-1.002,3.886-2.473,0.573-4.408c-10.519-5.185-17.816-4.831-21.887,1.058c-0.242,0.515-0.07,0.633,0.528,0.353
		c1.541-0.888,2.747-1.279,3.623-1.19c0.448,2.394,2.587,4.093,5.025,3.994c2.435-0.102,4.43-1.97,4.682-4.392
		c0.974,0.021,2.11,0.2,3.396,0.528C185.153,153.235,185.121,154.426,182.68,155.711z"/>
	<path fill="#1E3A2B" d="M208.38,90.353c8.765,4.064,12.431,8.815,11.002,14.258c-3.358,12.788-19.729,14.439-27.352,23.342
		c-2.858,3.332-4.408,7.263-4.654,11.788c-1.992,9.367,3.833,17.305,17.474,23.813c5.725,1.378,6.429,9.137-1.585,14.286
		c0,0-2.708,1.531-8.122,4.584c-4.956,3.3-7.279,6.836-6.96,10.607c0.502,6.047,5.85,10.086,11.757,9.468
		c4.643-0.479,10.219-3.351,16.737-8.605c-7.868-4.398-8.221-8.634-1.063-12.701c4.007-2.044,7.354-4.571,10.063-7.585
		c4.85-9.239,5.448-16.085,1.808-20.528c-5.073-6.187-14.185-4.176-21.301-10.102c-9.717-8.087,0.722-15.203,6.515-20.251
		c6.569-5.729,10.439-11.222,11.601-16.493c3.511-15.881-14.809-21.457-26.811-23.593c-7.906-1.409-16.957-1.871-27.158-1.392
		c-0.894,0.042-1.563,0.09-2.457,0.121c0.083,1.513,0.041,2.601-0.141,3.902C184.44,84.359,198.135,86.03,208.38,90.353z"/>
	<path fill="#1E3A2B" d="M159.418,200.901c-3.73-0.964-6.951-1.098-9.666-0.395c-1.235,0.175-2.527,0.175-3.883,0
		c-1.588-0.22-2.877-0.181-3.857,0.109c-2.056,0.604-2.142,1.622-1.722,3.459c0.624,2.705,2.559,5.697,4.937,6.436
		c0.961,0.299,2.104,0.353,3.43,0.159c5.089-0.742,5.774-2.429,9.5-4.927c2.441-1.636,4.837-2.572,8.195-3.791
		c0.803-0.289,0.503-0.758-0.891-1.399c-2.884-1.149-6.031-2.999-9.439-5.559c-4.466-2.769-8.262-2.832-11.388-0.178
		c-4.048-1.464-5.99,0.2-6.652,4.896c-0.222,1.616,0.424,2.278,1.553,1.601c1.697-1.019,2.085-1.327,4.179-1.651
		c1.62-0.252,3.578-0.322,5.865-0.214c4.048-0.083,7.381,0.201,9.994,0.859C162.152,200.994,162.104,201.194,159.418,200.901z"/>
	<path fill="#1E3A2B" d="M185.78,136.212c-10.353-5.759-22.772-5.259-28.768,2.822c-0.738,1.378,0.859,2.432,2.474,0.904
		c6.324-6.123,14.831-6.926,25.502-2.403C186.372,137.937,186.948,136.987,185.78,136.212z"/>
	<path fill="#1E3A2B" d="M163.575,150.113c5.474-5.376,12.883-6.025,22.237-1.941C176.26,142.682,168.848,143.328,163.575,150.113z"
		/>
</g>
</svg>
